<svg version="1.1" xmlns="http://www.w3.org/2000/svg" xmlns:xlink="http://www.w3.org/1999/xlink" width="1284" height="799"><defs><clipPath id="TXaGFuWXlORO"><path fill="none" stroke="none" d=" M 0 0 L 1284 0 L 1284 799 L 0 799 L 0 0 Z"/></clipPath></defs><g transform="scale(1,1)" clip-path="url(#TXaGFuWXlORO)"><g><rect fill="rgb(255,255,255)" stroke="none" x="0" y="0" width="1284" height="799" fill-opacity="1"/><path fill="none" stroke="rgb(192,192,192)" paint-order="fill stroke markers" d=" M 42.5 0.5 L 42.5 799.5 M 42.5 0.5 L 42.5 799.5 M 92.5 0.5 L 92.5 799.5 M 142.5 0.5 L 142.5 799.5 M 192.5 0.5 L 192.5 799.5 M 242.5 0.5 L 242.5 799.5 M 292.5 0.5 L 292.5 799.5 M 342.5 0.5 L 342.5 799.5 M 392.5 0.5 L 392.5 799.5 M 442.5 0.5 L 442.5 799.5 M 492.5 0.5 L 492.5 799.5 M 542.5 0.5 L 542.5 799.5 M 592.5 0.5 L 592.5 799.5 M 692.5 0.5 L 692.5 799.5 M 742.5 0.5 L 742.5 799.5 M 792.5 0.5 L 792.5 799.5 M 842.5 0.5 L 842.5 799.5 M 892.5 0.5 L 892.5 799.5 M 942.5 0.5 L 942.5 799.5 M 992.5 0.5 L 992.5 799.5 M 1042.5 0.5 L 1042.5 799.5 M 1092.5 0.5 L 1092.5 799.5 M 1142.5 0.5 L 1142.5 799.5 M 1192.5 0.5 L 1192.5 799.5 M 1242.5 0.5 L 1242.5 799.5" stroke-opacity="1" stroke-linecap="round" stroke-linejoin="round" stroke-miterlimit="10"/><path fill="none" stroke="rgb(192,192,192)" paint-order="fill stroke markers" d=" M 2.5 0.5 L 2.5 799.5 M 12.5 0.5 L 12.5 799.5 M 22.5 0.5 L 22.5 799.5 M 32.5 0.5 L 32.5 799.5 M 52.5 0.5 L 52.5 799.5 M 62.5 0.5 L 62.5 799.5 M 72.5 0.5 L 72.5 799.5 M 82.5 0.5 L 82.5 799.5 M 102.5 0.5 L 102.5 799.5 M 112.5 0.5 L 112.5 799.5 M 122.5 0.5 L 122.5 799.5 M 132.5 0.5 L 132.5 799.5 M 152.5 0.5 L 152.5 799.5 M 162.5 0.5 L 162.5 799.5 M 172.5 0.5 L 172.5 799.5 M 182.5 0.5 L 182.5 799.5 M 202.5 0.5 L 202.5 799.5 M 212.5 0.5 L 212.5 799.5 M 222.5 0.5 L 222.5 799.5 M 232.5 0.5 L 232.5 799.5 M 252.5 0.5 L 252.5 799.5 M 262.5 0.5 L 262.5 799.5 M 272.5 0.5 L 272.5 799.5 M 282.5 0.5 L 282.5 799.5 M 302.5 0.5 L 302.5 799.5 M 312.5 0.5 L 312.5 799.5 M 322.5 0.5 L 322.5 799.5 M 332.5 0.5 L 332.5 799.5 M 352.5 0.5 L 352.5 799.5 M 362.5 0.5 L 362.5 799.5 M 372.5 0.5 L 372.5 799.5 M 382.5 0.5 L 382.5 799.5 M 402.5 0.5 L 402.5 799.5 M 412.5 0.5 L 412.5 799.5 M 422.5 0.5 L 422.5 799.5 M 432.5 0.5 L 432.5 799.5 M 452.5 0.5 L 452.5 799.5 M 462.5 0.5 L 462.5 799.5 M 472.5 0.5 L 472.5 799.5 M 482.5 0.5 L 482.5 799.5 M 502.5 0.5 L 502.5 799.5 M 512.5 0.5 L 512.5 799.5 M 522.5 0.5 L 522.5 799.5 M 532.5 0.5 L 532.5 799.5 M 552.5 0.5 L 552.5 799.5 M 562.5 0.5 L 562.5 799.5 M 572.5 0.5 L 572.5 799.5 M 582.5 0.5 L 582.5 799.5 M 602.5 0.5 L 602.5 799.5 M 612.5 0.5 L 612.5 799.5 M 622.5 0.5 L 622.5 799.5 M 632.5 0.5 L 632.5 799.5 M 652.5 0.5 L 652.5 799.5 M 662.5 0.5 L 662.5 799.5 M 672.5 0.5 L 672.5 799.5 M 682.5 0.5 L 682.5 799.5 M 702.5 0.5 L 702.5 799.5 M 712.5 0.5 L 712.5 799.5 M 722.5 0.5 L 722.5 799.5 M 732.5 0.5 L 732.5 799.5 M 752.5 0.5 L 752.5 799.5 M 762.5 0.5 L 762.5 799.5 M 772.5 0.5 L 772.5 799.5 M 782.5 0.5 L 782.5 799.5 M 802.5 0.5 L 802.5 799.5 M 812.5 0.5 L 812.5 799.5 M 822.5 0.5 L 822.5 799.5 M 832.5 0.5 L 832.5 799.5 M 852.5 0.5 L 852.5 799.5 M 862.5 0.5 L 862.5 799.5 M 872.5 0.5 L 872.5 799.5 M 882.5 0.5 L 882.5 799.5 M 902.5 0.5 L 902.5 799.5 M 912.5 0.5 L 912.5 799.5 M 922.5 0.5 L 922.5 799.5 M 932.5 0.5 L 932.5 799.5 M 952.5 0.5 L 952.5 799.5 M 962.5 0.5 L 962.5 799.5 M 972.5 0.5 L 972.5 799.5 M 982.5 0.5 L 982.5 799.5 M 1002.5 0.5 L 1002.5 799.5 M 1012.5 0.5 L 1012.5 799.5 M 1022.5 0.5 L 1022.5 799.5 M 1032.5 0.5 L 1032.5 799.5 M 1052.5 0.5 L 1052.5 799.5 M 1062.5 0.5 L 1062.5 799.5 M 1072.5 0.5 L 1072.5 799.5 M 1082.5 0.5 L 1082.5 799.5 M 1102.5 0.5 L 1102.5 799.5 M 1112.5 0.5 L 1112.5 799.5 M 1122.5 0.5 L 1122.5 799.5 M 1132.5 0.5 L 1132.5 799.5 M 1152.5 0.5 L 1152.5 799.5 M 1162.5 0.5 L 1162.5 799.5 M 1172.5 0.5 L 1172.5 799.5 M 1182.5 0.5 L 1182.5 799.5 M 1202.5 0.5 L 1202.5 799.5 M 1212.5 0.5 L 1212.5 799.5 M 1222.5 0.5 L 1222.5 799.5 M 1232.5 0.5 L 1232.5 799.5 M 1252.5 0.5 L 1252.5 799.5 M 1262.5 0.5 L 1262.5 799.5 M 1272.5 0.5 L 1272.5 799.5 M 1282.5 0.5 L 1282.5 799.5" stroke-opacity="0.23529411764705882" stroke-linecap="round" stroke-linejoin="round" stroke-miterlimit="10"/><path fill="none" stroke="rgb(192,192,192)" paint-order="fill stroke markers" d=" M 0.5 49.5 L 1284.5 49.5 M 0.5 49.5 L 1284.5 49.5 M 0.5 99.5 L 1284.5 99.5 M 0.5 149.5 L 1284.5 149.5 M 0.5 199.5 L 1284.5 199.5 M 0.5 249.5 L 1284.5 249.5 M 0.5 299.5 L 1284.5 299.5 M 0.5 349.5 L 1284.5 349.5 M 0.5 449.5 L 1284.5 449.5 M 0.5 499.5 L 1284.5 499.5 M 0.5 549.5 L 1284.5 549.5 M 0.5 599.5 L 1284.5 599.5 M 0.5 649.5 L 1284.5 649.5 M 0.5 699.5 L 1284.5 699.5 M 0.5 749.5 L 1284.5 749.5" stroke-opacity="1" stroke-linecap="round" stroke-linejoin="round" stroke-miterlimit="10"/><path fill="none" stroke="rgb(192,192,192)" paint-order="fill stroke markers" d=" M 0.5 9.5 L 1284.5 9.5 M 0.5 19.5 L 1284.5 19.5 M 0.5 29.5 L 1284.5 29.5 M 0.5 39.5 L 1284.5 39.5 M 0.5 59.5 L 1284.5 59.5 M 0.5 69.5 L 1284.5 69.5 M 0.5 79.5 L 1284.5 79.5 M 0.5 89.5 L 1284.5 89.5 M 0.5 109.5 L 1284.5 109.5 M 0.5 119.5 L 1284.5 119.5 M 0.5 129.5 L 1284.5 129.5 M 0.5 139.5 L 1284.5 139.5 M 0.5 159.5 L 1284.5 159.5 M 0.5 169.5 L 1284.5 169.5 M 0.5 179.5 L 1284.5 179.5 M 0.5 189.5 L 1284.5 189.5 M 0.5 209.5 L 1284.5 209.5 M 0.5 219.5 L 1284.5 219.5 M 0.5 229.5 L 1284.5 229.5 M 0.5 239.5 L 1284.5 239.5 M 0.5 259.5 L 1284.5 259.5 M 0.5 269.5 L 1284.5 269.5 M 0.5 279.5 L 1284.5 279.5 M 0.5 289.5 L 1284.5 289.5 M 0.5 309.5 L 1284.5 309.5 M 0.5 319.5 L 1284.5 319.5 M 0.5 329.5 L 1284.5 329.5 M 0.5 339.5 L 1284.5 339.5 M 0.5 359.5 L 1284.5 359.5 M 0.5 369.5 L 1284.5 369.5 M 0.5 379.5 L 1284.5 379.5 M 0.5 389.5 L 1284.5 389.5 M 0.5 409.5 L 1284.5 409.5 M 0.5 419.5 L 1284.5 419.5 M 0.5 429.5 L 1284.5 429.5 M 0.5 439.5 L 1284.5 439.5 M 0.5 459.5 L 1284.5 459.5 M 0.5 469.5 L 1284.5 469.5 M 0.5 479.5 L 1284.5 479.5 M 0.5 489.5 L 1284.5 489.5 M 0.5 509.5 L 1284.5 509.5 M 0.5 519.5 L 1284.5 519.5 M 0.5 529.5 L 1284.5 529.5 M 0.5 539.5 L 1284.5 539.5 M 0.5 559.5 L 1284.5 559.5 M 0.5 569.5 L 1284.5 569.5 M 0.5 579.5 L 1284.5 579.5 M 0.5 589.5 L 1284.5 589.5 M 0.5 609.5 L 1284.5 609.5 M 0.5 619.5 L 1284.5 619.5 M 0.5 629.5 L 1284.5 629.5 M 0.5 639.5 L 1284.5 639.5 M 0.5 659.5 L 1284.5 659.5 M 0.5 669.5 L 1284.5 669.5 M 0.5 679.5 L 1284.5 679.5 M 0.5 689.5 L 1284.5 689.5 M 0.5 709.5 L 1284.5 709.5 M 0.5 719.5 L 1284.5 719.5 M 0.5 729.5 L 1284.5 729.5 M 0.5 739.5 L 1284.5 739.5 M 0.5 759.5 L 1284.5 759.5 M 0.5 769.5 L 1284.5 769.5 M 0.5 779.5 L 1284.5 779.5 M 0.5 789.5 L 1284.5 789.5" stroke-opacity="0.23529411764705882" stroke-linecap="round" stroke-linejoin="round" stroke-miterlimit="10"/><path fill="none" stroke="rgb(37,37,37)" paint-order="fill stroke markers" d=" M 642.5 2.5 L 642.5 799.5" stroke-opacity="1" stroke-miterlimit="10"/><path fill="none" stroke="rgb(37,37,37)" paint-order="fill stroke markers" d=" M 642.5 1.5 L 638.5 5.5" stroke-opacity="1" stroke-miterlimit="10"/><path fill="none" stroke="rgb(37,37,37)" paint-order="fill stroke markers" d=" M 642.5 1.5 L 646.5 5.5" stroke-opacity="1" stroke-miterlimit="10"/><path fill="none" stroke="rgb(37,37,37)" paint-order="fill stroke markers" d=" M 0.5 399.5 L 1282.5 399.5" stroke-opacity="1" stroke-miterlimit="10"/><path fill="none" stroke="rgb(37,37,37)" paint-order="fill stroke markers" d=" M 1283.5 399.5 L 1279.5 395.5" stroke-opacity="1" stroke-miterlimit="10"/><path fill="none" stroke="rgb(37,37,37)" paint-order="fill stroke markers" d=" M 1283.5 399.5 L 1279.5 403.5" stroke-opacity="1" stroke-miterlimit="10"/><text fill="rgb(37,37,37)" stroke="none" font-family="geogebra-sans-serif, sans-serif" font-size="12px" font-style="normal" font-weight="normal" text-decoration="normal" x="34" y="415" text-anchor="start" dominant-baseline="alphabetic" fill-opacity="1">–12</text><text fill="none" stroke="rgb(255,255,255)" font-family="geogebra-sans-serif, sans-serif" font-size="12px" font-style="normal" font-weight="normal" text-decoration="normal" x="34" y="415" text-anchor="start" dominant-baseline="alphabetic" stroke-opacity="1" stroke-linejoin="bevel" stroke-miterlimit="10" stroke-width="3">–12</text><text fill="rgb(37,37,37)" stroke="none" font-family="geogebra-sans-serif, sans-serif" font-size="12px" font-style="normal" font-weight="normal" text-decoration="normal" x="34" y="415" text-anchor="start" dominant-baseline="alphabetic" fill-opacity="1">–12</text><text fill="rgb(37,37,37)" stroke="none" font-family="geogebra-sans-serif, sans-serif" font-size="12px" font-style="normal" font-weight="normal" text-decoration="normal" x="84" y="415" text-anchor="start" dominant-baseline="alphabetic" fill-opacity="1">–11</text><text fill="none" stroke="rgb(255,255,255)" font-family="geogebra-sans-serif, sans-serif" font-size="12px" font-style="normal" font-weight="normal" text-decoration="normal" x="84" y="415" text-anchor="start" dominant-baseline="alphabetic" stroke-opacity="1" stroke-linejoin="bevel" stroke-miterlimit="10" stroke-width="3">–11</text><text fill="rgb(37,37,37)" stroke="none" font-family="geogebra-sans-serif, sans-serif" font-size="12px" font-style="normal" font-weight="normal" text-decoration="normal" x="84" y="415" text-anchor="start" dominant-baseline="alphabetic" fill-opacity="1">–11</text><text fill="rgb(37,37,37)" stroke="none" font-family="geogebra-sans-serif, sans-serif" font-size="12px" font-style="normal" font-weight="normal" text-decoration="normal" x="134" y="415" text-anchor="start" dominant-baseline="alphabetic" fill-opacity="1">–10</text><text fill="none" stroke="rgb(255,255,255)" font-family="geogebra-sans-serif, sans-serif" font-size="12px" font-style="normal" font-weight="normal" text-decoration="normal" x="134" y="415" text-anchor="start" dominant-baseline="alphabetic" stroke-opacity="1" stroke-linejoin="bevel" stroke-miterlimit="10" stroke-width="3">–10</text><text fill="rgb(37,37,37)" stroke="none" font-family="geogebra-sans-serif, sans-serif" font-size="12px" font-style="normal" font-weight="normal" text-decoration="normal" x="134" y="415" text-anchor="start" dominant-baseline="alphabetic" fill-opacity="1">–10</text><text fill="rgb(37,37,37)" stroke="none" font-family="geogebra-sans-serif, sans-serif" font-size="12px" font-style="normal" font-weight="normal" text-decoration="normal" x="187" y="415" text-anchor="start" dominant-baseline="alphabetic" fill-opacity="1">–9</text><text fill="none" stroke="rgb(255,255,255)" font-family="geogebra-sans-serif, sans-serif" font-size="12px" font-style="normal" font-weight="normal" text-decoration="normal" x="187" y="415" text-anchor="start" dominant-baseline="alphabetic" stroke-opacity="1" stroke-linejoin="bevel" stroke-miterlimit="10" stroke-width="3">–9</text><text fill="rgb(37,37,37)" stroke="none" font-family="geogebra-sans-serif, sans-serif" font-size="12px" font-style="normal" font-weight="normal" text-decoration="normal" x="187" y="415" text-anchor="start" dominant-baseline="alphabetic" fill-opacity="1">–9</text><text fill="rgb(37,37,37)" stroke="none" font-family="geogebra-sans-serif, sans-serif" font-size="12px" font-style="normal" font-weight="normal" text-decoration="normal" x="237" y="415" text-anchor="start" dominant-baseline="alphabetic" fill-opacity="1">–8</text><text fill="none" stroke="rgb(255,255,255)" font-family="geogebra-sans-serif, sans-serif" font-size="12px" font-style="normal" font-weight="normal" text-decoration="normal" x="237" y="415" text-anchor="start" dominant-baseline="alphabetic" stroke-opacity="1" stroke-linejoin="bevel" stroke-miterlimit="10" stroke-width="3">–8</text><text fill="rgb(37,37,37)" stroke="none" font-family="geogebra-sans-serif, sans-serif" font-size="12px" font-style="normal" font-weight="normal" text-decoration="normal" x="237" y="415" text-anchor="start" dominant-baseline="alphabetic" fill-opacity="1">–8</text><text fill="rgb(37,37,37)" stroke="none" font-family="geogebra-sans-serif, sans-serif" font-size="12px" font-style="normal" font-weight="normal" text-decoration="normal" x="287" y="415" text-anchor="start" dominant-baseline="alphabetic" fill-opacity="1">–7</text><text fill="none" stroke="rgb(255,255,255)" font-family="geogebra-sans-serif, sans-serif" font-size="12px" font-style="normal" font-weight="normal" text-decoration="normal" x="287" y="415" text-anchor="start" dominant-baseline="alphabetic" stroke-opacity="1" stroke-linejoin="bevel" stroke-miterlimit="10" stroke-width="3">–7</text><text fill="rgb(37,37,37)" stroke="none" font-family="geogebra-sans-serif, sans-serif" font-size="12px" font-style="normal" font-weight="normal" text-decoration="normal" x="287" y="415" text-anchor="start" dominant-baseline="alphabetic" fill-opacity="1">–7</text><text fill="rgb(37,37,37)" stroke="none" font-family="geogebra-sans-serif, sans-serif" font-size="12px" font-style="normal" font-weight="normal" text-decoration="normal" x="337" y="415" text-anchor="start" dominant-baseline="alphabetic" fill-opacity="1">–6</text><text fill="none" stroke="rgb(255,255,255)" font-family="geogebra-sans-serif, sans-serif" font-size="12px" font-style="normal" font-weight="normal" text-decoration="normal" x="337" y="415" text-anchor="start" dominant-baseline="alphabetic" stroke-opacity="1" stroke-linejoin="bevel" stroke-miterlimit="10" stroke-width="3">–6</text><text fill="rgb(37,37,37)" stroke="none" font-family="geogebra-sans-serif, sans-serif" font-size="12px" font-style="normal" font-weight="normal" text-decoration="normal" x="337" y="415" text-anchor="start" dominant-baseline="alphabetic" fill-opacity="1">–6</text><text fill="rgb(37,37,37)" stroke="none" font-family="geogebra-sans-serif, sans-serif" font-size="12px" font-style="normal" font-weight="normal" text-decoration="normal" x="387" y="415" text-anchor="start" dominant-baseline="alphabetic" fill-opacity="1">–5</text><text fill="none" stroke="rgb(255,255,255)" font-family="geogebra-sans-serif, sans-serif" font-size="12px" font-style="normal" font-weight="normal" text-decoration="normal" x="387" y="415" text-anchor="start" dominant-baseline="alphabetic" stroke-opacity="1" stroke-linejoin="bevel" stroke-miterlimit="10" stroke-width="3">–5</text><text fill="rgb(37,37,37)" stroke="none" font-family="geogebra-sans-serif, sans-serif" font-size="12px" font-style="normal" font-weight="normal" text-decoration="normal" x="387" y="415" text-anchor="start" dominant-baseline="alphabetic" fill-opacity="1">–5</text><text fill="rgb(37,37,37)" stroke="none" font-family="geogebra-sans-serif, sans-serif" font-size="12px" font-style="normal" font-weight="normal" text-decoration="normal" x="437" y="415" text-anchor="start" dominant-baseline="alphabetic" fill-opacity="1">–4</text><text fill="none" stroke="rgb(255,255,255)" font-family="geogebra-sans-serif, sans-serif" font-size="12px" font-style="normal" font-weight="normal" text-decoration="normal" x="437" y="415" text-anchor="start" dominant-baseline="alphabetic" stroke-opacity="1" stroke-linejoin="bevel" stroke-miterlimit="10" stroke-width="3">–4</text><text fill="rgb(37,37,37)" stroke="none" font-family="geogebra-sans-serif, sans-serif" font-size="12px" font-style="normal" font-weight="normal" text-decoration="normal" x="437" y="415" text-anchor="start" dominant-baseline="alphabetic" fill-opacity="1">–4</text><text fill="rgb(37,37,37)" stroke="none" font-family="geogebra-sans-serif, sans-serif" font-size="12px" font-style="normal" font-weight="normal" text-decoration="normal" x="487" y="415" text-anchor="start" dominant-baseline="alphabetic" fill-opacity="1">–3</text><text fill="none" stroke="rgb(255,255,255)" font-family="geogebra-sans-serif, sans-serif" font-size="12px" font-style="normal" font-weight="normal" text-decoration="normal" x="487" y="415" text-anchor="start" dominant-baseline="alphabetic" stroke-opacity="1" stroke-linejoin="bevel" stroke-miterlimit="10" stroke-width="3">–3</text><text fill="rgb(37,37,37)" stroke="none" font-family="geogebra-sans-serif, sans-serif" font-size="12px" font-style="normal" font-weight="normal" text-decoration="normal" x="487" y="415" text-anchor="start" dominant-baseline="alphabetic" fill-opacity="1">–3</text><text fill="rgb(37,37,37)" stroke="none" font-family="geogebra-sans-serif, sans-serif" font-size="12px" font-style="normal" font-weight="normal" text-decoration="normal" x="537" y="415" text-anchor="start" dominant-baseline="alphabetic" fill-opacity="1">–2</text><text fill="none" stroke="rgb(255,255,255)" font-family="geogebra-sans-serif, sans-serif" font-size="12px" font-style="normal" font-weight="normal" text-decoration="normal" x="537" y="415" text-anchor="start" dominant-baseline="alphabetic" stroke-opacity="1" stroke-linejoin="bevel" stroke-miterlimit="10" stroke-width="3">–2</text><text fill="rgb(37,37,37)" stroke="none" font-family="geogebra-sans-serif, sans-serif" font-size="12px" font-style="normal" font-weight="normal" text-decoration="normal" x="537" y="415" text-anchor="start" dominant-baseline="alphabetic" fill-opacity="1">–2</text><text fill="rgb(37,37,37)" stroke="none" font-family="geogebra-sans-serif, sans-serif" font-size="12px" font-style="normal" font-weight="normal" text-decoration="normal" x="587" y="415" text-anchor="start" dominant-baseline="alphabetic" fill-opacity="1">–1</text><text fill="none" stroke="rgb(255,255,255)" font-family="geogebra-sans-serif, sans-serif" font-size="12px" font-style="normal" font-weight="normal" text-decoration="normal" x="587" y="415" text-anchor="start" dominant-baseline="alphabetic" stroke-opacity="1" stroke-linejoin="bevel" stroke-miterlimit="10" stroke-width="3">–1</text><text fill="rgb(37,37,37)" stroke="none" font-family="geogebra-sans-serif, sans-serif" font-size="12px" font-style="normal" font-weight="normal" text-decoration="normal" x="587" y="415" text-anchor="start" dominant-baseline="alphabetic" fill-opacity="1">–1</text><text fill="rgb(37,37,37)" stroke="none" font-family="geogebra-sans-serif, sans-serif" font-size="12px" font-style="normal" font-weight="normal" text-decoration="normal" x="690" y="415" text-anchor="start" dominant-baseline="alphabetic" fill-opacity="1">1</text><text fill="none" stroke="rgb(255,255,255)" font-family="geogebra-sans-serif, sans-serif" font-size="12px" font-style="normal" font-weight="normal" text-decoration="normal" x="690" y="415" text-anchor="start" dominant-baseline="alphabetic" stroke-opacity="1" stroke-linejoin="bevel" stroke-miterlimit="10" stroke-width="3">1</text><text fill="rgb(37,37,37)" stroke="none" font-family="geogebra-sans-serif, sans-serif" font-size="12px" font-style="normal" font-weight="normal" text-decoration="normal" x="690" y="415" text-anchor="start" dominant-baseline="alphabetic" fill-opacity="1">1</text><text fill="rgb(37,37,37)" stroke="none" font-family="geogebra-sans-serif, sans-serif" font-size="12px" font-style="normal" font-weight="normal" text-decoration="normal" x="740" y="415" text-anchor="start" dominant-baseline="alphabetic" fill-opacity="1">2</text><text fill="none" stroke="rgb(255,255,255)" font-family="geogebra-sans-serif, sans-serif" font-size="12px" font-style="normal" font-weight="normal" text-decoration="normal" x="740" y="415" text-anchor="start" dominant-baseline="alphabetic" stroke-opacity="1" stroke-linejoin="bevel" stroke-miterlimit="10" stroke-width="3">2</text><text fill="rgb(37,37,37)" stroke="none" font-family="geogebra-sans-serif, sans-serif" font-size="12px" font-style="normal" font-weight="normal" text-decoration="normal" x="740" y="415" text-anchor="start" dominant-baseline="alphabetic" fill-opacity="1">2</text><text fill="rgb(37,37,37)" stroke="none" font-family="geogebra-sans-serif, sans-serif" font-size="12px" font-style="normal" font-weight="normal" text-decoration="normal" x="790" y="415" text-anchor="start" dominant-baseline="alphabetic" fill-opacity="1">3</text><text fill="none" stroke="rgb(255,255,255)" font-family="geogebra-sans-serif, sans-serif" font-size="12px" font-style="normal" font-weight="normal" text-decoration="normal" x="790" y="415" text-anchor="start" dominant-baseline="alphabetic" stroke-opacity="1" stroke-linejoin="bevel" stroke-miterlimit="10" stroke-width="3">3</text><text fill="rgb(37,37,37)" stroke="none" font-family="geogebra-sans-serif, sans-serif" font-size="12px" font-style="normal" font-weight="normal" text-decoration="normal" x="790" y="415" text-anchor="start" dominant-baseline="alphabetic" fill-opacity="1">3</text><text fill="rgb(37,37,37)" stroke="none" font-family="geogebra-sans-serif, sans-serif" font-size="12px" font-style="normal" font-weight="normal" text-decoration="normal" x="840" y="415" text-anchor="start" dominant-baseline="alphabetic" fill-opacity="1">4</text><text fill="none" stroke="rgb(255,255,255)" font-family="geogebra-sans-serif, sans-serif" font-size="12px" font-style="normal" font-weight="normal" text-decoration="normal" x="840" y="415" text-anchor="start" dominant-baseline="alphabetic" stroke-opacity="1" stroke-linejoin="bevel" stroke-miterlimit="10" stroke-width="3">4</text><text fill="rgb(37,37,37)" stroke="none" font-family="geogebra-sans-serif, sans-serif" font-size="12px" font-style="normal" font-weight="normal" text-decoration="normal" x="840" y="415" text-anchor="start" dominant-baseline="alphabetic" fill-opacity="1">4</text><text fill="rgb(37,37,37)" stroke="none" font-family="geogebra-sans-serif, sans-serif" font-size="12px" font-style="normal" font-weight="normal" text-decoration="normal" x="890" y="415" text-anchor="start" dominant-baseline="alphabetic" fill-opacity="1">5</text><text fill="none" stroke="rgb(255,255,255)" font-family="geogebra-sans-serif, sans-serif" font-size="12px" font-style="normal" font-weight="normal" text-decoration="normal" x="890" y="415" text-anchor="start" dominant-baseline="alphabetic" stroke-opacity="1" stroke-linejoin="bevel" stroke-miterlimit="10" stroke-width="3">5</text><text fill="rgb(37,37,37)" stroke="none" font-family="geogebra-sans-serif, sans-serif" font-size="12px" font-style="normal" font-weight="normal" text-decoration="normal" x="890" y="415" text-anchor="start" dominant-baseline="alphabetic" fill-opacity="1">5</text><text fill="rgb(37,37,37)" stroke="none" font-family="geogebra-sans-serif, sans-serif" font-size="12px" font-style="normal" font-weight="normal" text-decoration="normal" x="940" y="415" text-anchor="start" dominant-baseline="alphabetic" fill-opacity="1">6</text><text fill="none" stroke="rgb(255,255,255)" font-family="geogebra-sans-serif, sans-serif" font-size="12px" font-style="normal" font-weight="normal" text-decoration="normal" x="940" y="415" text-anchor="start" dominant-baseline="alphabetic" stroke-opacity="1" stroke-linejoin="bevel" stroke-miterlimit="10" stroke-width="3">6</text><text fill="rgb(37,37,37)" stroke="none" font-family="geogebra-sans-serif, sans-serif" font-size="12px" font-style="normal" font-weight="normal" text-decoration="normal" x="940" y="415" text-anchor="start" dominant-baseline="alphabetic" fill-opacity="1">6</text><text fill="rgb(37,37,37)" stroke="none" font-family="geogebra-sans-serif, sans-serif" font-size="12px" font-style="normal" font-weight="normal" text-decoration="normal" x="990" y="415" text-anchor="start" dominant-baseline="alphabetic" fill-opacity="1">7</text><text fill="none" stroke="rgb(255,255,255)" font-family="geogebra-sans-serif, sans-serif" font-size="12px" font-style="normal" font-weight="normal" text-decoration="normal" x="990" y="415" text-anchor="start" dominant-baseline="alphabetic" stroke-opacity="1" stroke-linejoin="bevel" stroke-miterlimit="10" stroke-width="3">7</text><text fill="rgb(37,37,37)" stroke="none" font-family="geogebra-sans-serif, sans-serif" font-size="12px" font-style="normal" font-weight="normal" text-decoration="normal" x="990" y="415" text-anchor="start" dominant-baseline="alphabetic" fill-opacity="1">7</text><text fill="rgb(37,37,37)" stroke="none" font-family="geogebra-sans-serif, sans-serif" font-size="12px" font-style="normal" font-weight="normal" text-decoration="normal" x="1040" y="415" text-anchor="start" dominant-baseline="alphabetic" fill-opacity="1">8</text><text fill="none" stroke="rgb(255,255,255)" font-family="geogebra-sans-serif, sans-serif" font-size="12px" font-style="normal" font-weight="normal" text-decoration="normal" x="1040" y="415" text-anchor="start" dominant-baseline="alphabetic" stroke-opacity="1" stroke-linejoin="bevel" stroke-miterlimit="10" stroke-width="3">8</text><text fill="rgb(37,37,37)" stroke="none" font-family="geogebra-sans-serif, sans-serif" font-size="12px" font-style="normal" font-weight="normal" text-decoration="normal" x="1040" y="415" text-anchor="start" dominant-baseline="alphabetic" fill-opacity="1">8</text><text fill="rgb(37,37,37)" stroke="none" font-family="geogebra-sans-serif, sans-serif" font-size="12px" font-style="normal" font-weight="normal" text-decoration="normal" x="1090" y="415" text-anchor="start" dominant-baseline="alphabetic" fill-opacity="1">9</text><text fill="none" stroke="rgb(255,255,255)" font-family="geogebra-sans-serif, sans-serif" font-size="12px" font-style="normal" font-weight="normal" text-decoration="normal" x="1090" y="415" text-anchor="start" dominant-baseline="alphabetic" stroke-opacity="1" stroke-linejoin="bevel" stroke-miterlimit="10" stroke-width="3">9</text><text fill="rgb(37,37,37)" stroke="none" font-family="geogebra-sans-serif, sans-serif" font-size="12px" font-style="normal" font-weight="normal" text-decoration="normal" x="1090" y="415" text-anchor="start" dominant-baseline="alphabetic" fill-opacity="1">9</text><text fill="rgb(37,37,37)" stroke="none" font-family="geogebra-sans-serif, sans-serif" font-size="12px" font-style="normal" font-weight="normal" text-decoration="normal" x="1137" y="415" text-anchor="start" dominant-baseline="alphabetic" fill-opacity="1">10</text><text fill="none" stroke="rgb(255,255,255)" font-family="geogebra-sans-serif, sans-serif" font-size="12px" font-style="normal" font-weight="normal" text-decoration="normal" x="1137" y="415" text-anchor="start" dominant-baseline="alphabetic" stroke-opacity="1" stroke-linejoin="bevel" stroke-miterlimit="10" stroke-width="3">10</text><text fill="rgb(37,37,37)" stroke="none" font-family="geogebra-sans-serif, sans-serif" font-size="12px" font-style="normal" font-weight="normal" text-decoration="normal" x="1137" y="415" text-anchor="start" dominant-baseline="alphabetic" fill-opacity="1">10</text><text fill="rgb(37,37,37)" stroke="none" font-family="geogebra-sans-serif, sans-serif" font-size="12px" font-style="normal" font-weight="normal" text-decoration="normal" x="1187" y="415" text-anchor="start" dominant-baseline="alphabetic" fill-opacity="1">11</text><text fill="none" stroke="rgb(255,255,255)" font-family="geogebra-sans-serif, sans-serif" font-size="12px" font-style="normal" font-weight="normal" text-decoration="normal" x="1187" y="415" text-anchor="start" dominant-baseline="alphabetic" stroke-opacity="1" stroke-linejoin="bevel" stroke-miterlimit="10" stroke-width="3">11</text><text fill="rgb(37,37,37)" stroke="none" font-family="geogebra-sans-serif, sans-serif" font-size="12px" font-style="normal" font-weight="normal" text-decoration="normal" x="1187" y="415" text-anchor="start" dominant-baseline="alphabetic" fill-opacity="1">11</text><text fill="rgb(37,37,37)" stroke="none" font-family="geogebra-sans-serif, sans-serif" font-size="12px" font-style="normal" font-weight="normal" text-decoration="normal" x="1237" y="415" text-anchor="start" dominant-baseline="alphabetic" fill-opacity="1">12</text><text fill="none" stroke="rgb(255,255,255)" font-family="geogebra-sans-serif, sans-serif" font-size="12px" font-style="normal" font-weight="normal" text-decoration="normal" x="1237" y="415" text-anchor="start" dominant-baseline="alphabetic" stroke-opacity="1" stroke-linejoin="bevel" stroke-miterlimit="10" stroke-width="3">12</text><text fill="rgb(37,37,37)" stroke="none" font-family="geogebra-sans-serif, sans-serif" font-size="12px" font-style="normal" font-weight="normal" text-decoration="normal" x="1237" y="415" text-anchor="start" dominant-baseline="alphabetic" fill-opacity="1">12</text><text fill="rgb(37,37,37)" stroke="none" font-family="geogebra-sans-serif, sans-serif" font-size="12px" font-style="normal" font-weight="normal" text-decoration="normal" x="621" y="754" text-anchor="start" dominant-baseline="alphabetic" fill-opacity="1">–7</text><text fill="none" stroke="rgb(255,255,255)" font-family="geogebra-sans-serif, sans-serif" font-size="12px" font-style="normal" font-weight="normal" text-decoration="normal" x="621" y="754" text-anchor="start" dominant-baseline="alphabetic" stroke-opacity="1" stroke-linejoin="bevel" stroke-miterlimit="10" stroke-width="3">–7</text><text fill="rgb(37,37,37)" stroke="none" font-family="geogebra-sans-serif, sans-serif" font-size="12px" font-style="normal" font-weight="normal" text-decoration="normal" x="621" y="754" text-anchor="start" dominant-baseline="alphabetic" fill-opacity="1">–7</text><text fill="rgb(37,37,37)" stroke="none" font-family="geogebra-sans-serif, sans-serif" font-size="12px" font-style="normal" font-weight="normal" text-decoration="normal" x="621" y="704" text-anchor="start" dominant-baseline="alphabetic" fill-opacity="1">–6</text><text fill="none" stroke="rgb(255,255,255)" font-family="geogebra-sans-serif, sans-serif" font-size="12px" font-style="normal" font-weight="normal" text-decoration="normal" x="621" y="704" text-anchor="start" dominant-baseline="alphabetic" stroke-opacity="1" stroke-linejoin="bevel" stroke-miterlimit="10" stroke-width="3">–6</text><text fill="rgb(37,37,37)" stroke="none" font-family="geogebra-sans-serif, sans-serif" font-size="12px" font-style="normal" font-weight="normal" text-decoration="normal" x="621" y="704" text-anchor="start" dominant-baseline="alphabetic" fill-opacity="1">–6</text><text fill="rgb(37,37,37)" stroke="none" font-family="geogebra-sans-serif, sans-serif" font-size="12px" font-style="normal" font-weight="normal" text-decoration="normal" x="621" y="654" text-anchor="start" dominant-baseline="alphabetic" fill-opacity="1">–5</text><text fill="none" stroke="rgb(255,255,255)" font-family="geogebra-sans-serif, sans-serif" font-size="12px" font-style="normal" font-weight="normal" text-decoration="normal" x="621" y="654" text-anchor="start" dominant-baseline="alphabetic" stroke-opacity="1" stroke-linejoin="bevel" stroke-miterlimit="10" stroke-width="3">–5</text><text fill="rgb(37,37,37)" stroke="none" font-family="geogebra-sans-serif, sans-serif" font-size="12px" font-style="normal" font-weight="normal" text-decoration="normal" x="621" y="654" text-anchor="start" dominant-baseline="alphabetic" fill-opacity="1">–5</text><text fill="rgb(37,37,37)" stroke="none" font-family="geogebra-sans-serif, sans-serif" font-size="12px" font-style="normal" font-weight="normal" text-decoration="normal" x="621" y="604" text-anchor="start" dominant-baseline="alphabetic" fill-opacity="1">–4</text><text fill="none" stroke="rgb(255,255,255)" font-family="geogebra-sans-serif, sans-serif" font-size="12px" font-style="normal" font-weight="normal" text-decoration="normal" x="621" y="604" text-anchor="start" dominant-baseline="alphabetic" stroke-opacity="1" stroke-linejoin="bevel" stroke-miterlimit="10" stroke-width="3">–4</text><text fill="rgb(37,37,37)" stroke="none" font-family="geogebra-sans-serif, sans-serif" font-size="12px" font-style="normal" font-weight="normal" text-decoration="normal" x="621" y="604" text-anchor="start" dominant-baseline="alphabetic" fill-opacity="1">–4</text><text fill="rgb(37,37,37)" stroke="none" font-family="geogebra-sans-serif, sans-serif" font-size="12px" font-style="normal" font-weight="normal" text-decoration="normal" x="621" y="554" text-anchor="start" dominant-baseline="alphabetic" fill-opacity="1">–3</text><text fill="none" stroke="rgb(255,255,255)" font-family="geogebra-sans-serif, sans-serif" font-size="12px" font-style="normal" font-weight="normal" text-decoration="normal" x="621" y="554" text-anchor="start" dominant-baseline="alphabetic" stroke-opacity="1" stroke-linejoin="bevel" stroke-miterlimit="10" stroke-width="3">–3</text><text fill="rgb(37,37,37)" stroke="none" font-family="geogebra-sans-serif, sans-serif" font-size="12px" font-style="normal" font-weight="normal" text-decoration="normal" x="621" y="554" text-anchor="start" dominant-baseline="alphabetic" fill-opacity="1">–3</text><text fill="rgb(37,37,37)" stroke="none" font-family="geogebra-sans-serif, sans-serif" font-size="12px" font-style="normal" font-weight="normal" text-decoration="normal" x="621" y="504" text-anchor="start" dominant-baseline="alphabetic" fill-opacity="1">–2</text><text fill="none" stroke="rgb(255,255,255)" font-family="geogebra-sans-serif, sans-serif" font-size="12px" font-style="normal" font-weight="normal" text-decoration="normal" x="621" y="504" text-anchor="start" dominant-baseline="alphabetic" stroke-opacity="1" stroke-linejoin="bevel" stroke-miterlimit="10" stroke-width="3">–2</text><text fill="rgb(37,37,37)" stroke="none" font-family="geogebra-sans-serif, sans-serif" font-size="12px" font-style="normal" font-weight="normal" text-decoration="normal" x="621" y="504" text-anchor="start" dominant-baseline="alphabetic" fill-opacity="1">–2</text><text fill="rgb(37,37,37)" stroke="none" font-family="geogebra-sans-serif, sans-serif" font-size="12px" font-style="normal" font-weight="normal" text-decoration="normal" x="621" y="454" text-anchor="start" dominant-baseline="alphabetic" fill-opacity="1">–1</text><text fill="none" stroke="rgb(255,255,255)" font-family="geogebra-sans-serif, sans-serif" font-size="12px" font-style="normal" font-weight="normal" text-decoration="normal" x="621" y="454" text-anchor="start" dominant-baseline="alphabetic" stroke-opacity="1" stroke-linejoin="bevel" stroke-miterlimit="10" stroke-width="3">–1</text><text fill="rgb(37,37,37)" stroke="none" font-family="geogebra-sans-serif, sans-serif" font-size="12px" font-style="normal" font-weight="normal" text-decoration="normal" x="621" y="454" text-anchor="start" dominant-baseline="alphabetic" fill-opacity="1">–1</text><text fill="rgb(37,37,37)" stroke="none" font-family="geogebra-sans-serif, sans-serif" font-size="12px" font-style="normal" font-weight="normal" text-decoration="normal" x="627" y="354" text-anchor="start" dominant-baseline="alphabetic" fill-opacity="1">1</text><text fill="none" stroke="rgb(255,255,255)" font-family="geogebra-sans-serif, sans-serif" font-size="12px" font-style="normal" font-weight="normal" text-decoration="normal" x="627" y="354" text-anchor="start" dominant-baseline="alphabetic" stroke-opacity="1" stroke-linejoin="bevel" stroke-miterlimit="10" stroke-width="3">1</text><text fill="rgb(37,37,37)" stroke="none" font-family="geogebra-sans-serif, sans-serif" font-size="12px" font-style="normal" font-weight="normal" text-decoration="normal" x="627" y="354" text-anchor="start" dominant-baseline="alphabetic" fill-opacity="1">1</text><text fill="rgb(37,37,37)" stroke="none" font-family="geogebra-sans-serif, sans-serif" font-size="12px" font-style="normal" font-weight="normal" text-decoration="normal" x="627" y="304" text-anchor="start" dominant-baseline="alphabetic" fill-opacity="1">2</text><text fill="none" stroke="rgb(255,255,255)" font-family="geogebra-sans-serif, sans-serif" font-size="12px" font-style="normal" font-weight="normal" text-decoration="normal" x="627" y="304" text-anchor="start" dominant-baseline="alphabetic" stroke-opacity="1" stroke-linejoin="bevel" stroke-miterlimit="10" stroke-width="3">2</text><text fill="rgb(37,37,37)" stroke="none" font-family="geogebra-sans-serif, sans-serif" font-size="12px" font-style="normal" font-weight="normal" text-decoration="normal" x="627" y="304" text-anchor="start" dominant-baseline="alphabetic" fill-opacity="1">2</text><text fill="rgb(37,37,37)" stroke="none" font-family="geogebra-sans-serif, sans-serif" font-size="12px" font-style="normal" font-weight="normal" text-decoration="normal" x="627" y="254" text-anchor="start" dominant-baseline="alphabetic" fill-opacity="1">3</text><text fill="none" stroke="rgb(255,255,255)" font-family="geogebra-sans-serif, sans-serif" font-size="12px" font-style="normal" font-weight="normal" text-decoration="normal" x="627" y="254" text-anchor="start" dominant-baseline="alphabetic" stroke-opacity="1" stroke-linejoin="bevel" stroke-miterlimit="10" stroke-width="3">3</text><text fill="rgb(37,37,37)" stroke="none" font-family="geogebra-sans-serif, sans-serif" font-size="12px" font-style="normal" font-weight="normal" text-decoration="normal" x="627" y="254" text-anchor="start" dominant-baseline="alphabetic" fill-opacity="1">3</text><text fill="rgb(37,37,37)" stroke="none" font-family="geogebra-sans-serif, sans-serif" font-size="12px" font-style="normal" font-weight="normal" text-decoration="normal" x="627" y="204" text-anchor="start" dominant-baseline="alphabetic" fill-opacity="1">4</text><text fill="none" stroke="rgb(255,255,255)" font-family="geogebra-sans-serif, sans-serif" font-size="12px" font-style="normal" font-weight="normal" text-decoration="normal" x="627" y="204" text-anchor="start" dominant-baseline="alphabetic" stroke-opacity="1" stroke-linejoin="bevel" stroke-miterlimit="10" stroke-width="3">4</text><text fill="rgb(37,37,37)" stroke="none" font-family="geogebra-sans-serif, sans-serif" font-size="12px" font-style="normal" font-weight="normal" text-decoration="normal" x="627" y="204" text-anchor="start" dominant-baseline="alphabetic" fill-opacity="1">4</text><text fill="rgb(37,37,37)" stroke="none" font-family="geogebra-sans-serif, sans-serif" font-size="12px" font-style="normal" font-weight="normal" text-decoration="normal" x="627" y="154" text-anchor="start" dominant-baseline="alphabetic" fill-opacity="1">5</text><text fill="none" stroke="rgb(255,255,255)" font-family="geogebra-sans-serif, sans-serif" font-size="12px" font-style="normal" font-weight="normal" text-decoration="normal" x="627" y="154" text-anchor="start" dominant-baseline="alphabetic" stroke-opacity="1" stroke-linejoin="bevel" stroke-miterlimit="10" stroke-width="3">5</text><text fill="rgb(37,37,37)" stroke="none" font-family="geogebra-sans-serif, sans-serif" font-size="12px" font-style="normal" font-weight="normal" text-decoration="normal" x="627" y="154" text-anchor="start" dominant-baseline="alphabetic" fill-opacity="1">5</text><text fill="rgb(37,37,37)" stroke="none" font-family="geogebra-sans-serif, sans-serif" font-size="12px" font-style="normal" font-weight="normal" text-decoration="normal" x="627" y="104" text-anchor="start" dominant-baseline="alphabetic" fill-opacity="1">6</text><text fill="none" stroke="rgb(255,255,255)" font-family="geogebra-sans-serif, sans-serif" font-size="12px" font-style="normal" font-weight="normal" text-decoration="normal" x="627" y="104" text-anchor="start" dominant-baseline="alphabetic" stroke-opacity="1" stroke-linejoin="bevel" stroke-miterlimit="10" stroke-width="3">6</text><text fill="rgb(37,37,37)" stroke="none" font-family="geogebra-sans-serif, sans-serif" font-size="12px" font-style="normal" font-weight="normal" text-decoration="normal" x="627" y="104" text-anchor="start" dominant-baseline="alphabetic" fill-opacity="1">6</text><text fill="rgb(37,37,37)" stroke="none" font-family="geogebra-sans-serif, sans-serif" font-size="12px" font-style="normal" font-weight="normal" text-decoration="normal" x="627" y="54" text-anchor="start" dominant-baseline="alphabetic" fill-opacity="1">7</text><text fill="none" stroke="rgb(255,255,255)" font-family="geogebra-sans-serif, sans-serif" font-size="12px" font-style="normal" font-weight="normal" text-decoration="normal" x="627" y="54" text-anchor="start" dominant-baseline="alphabetic" stroke-opacity="1" stroke-linejoin="bevel" stroke-miterlimit="10" stroke-width="3">7</text><text fill="rgb(37,37,37)" stroke="none" font-family="geogebra-sans-serif, sans-serif" font-size="12px" font-style="normal" font-weight="normal" text-decoration="normal" x="627" y="54" text-anchor="start" dominant-baseline="alphabetic" fill-opacity="1">7</text><text fill="rgb(37,37,37)" stroke="none" font-family="geogebra-sans-serif, sans-serif" font-size="12px" font-style="normal" font-weight="normal" text-decoration="normal" x="627" y="415" text-anchor="start" dominant-baseline="alphabetic" fill-opacity="1">0</text><text fill="none" stroke="rgb(255,255,255)" font-family="geogebra-sans-serif, sans-serif" font-size="12px" font-style="normal" font-weight="normal" text-decoration="normal" x="627" y="415" text-anchor="start" dominant-baseline="alphabetic" stroke-opacity="1" stroke-linejoin="bevel" stroke-miterlimit="10" stroke-width="3">0</text><text fill="rgb(37,37,37)" stroke="none" font-family="geogebra-sans-serif, sans-serif" font-size="12px" font-style="normal" font-weight="normal" text-decoration="normal" x="627" y="415" text-anchor="start" dominant-baseline="alphabetic" fill-opacity="1">0</text><path fill="none" stroke="rgb(0,103,88)" paint-order="fill stroke markers" d=" M 230.71874999999994 804.7912147656469 L 235.734375 799.7038320693844 L 240.75 794.6147375311783 L 245.765625 789.5238702709935 L 250.78125 784.4311665478085 L 255.796875 779.33655959379 L 260.8125 774.2399794371643 L 265.828125 769.1413527129189 L 270.84375 764.0406024603899 L 275.859375 758.937647906714 L 280.875 753.8324042350391 L 285.890625 748.7247823362945 L 290.90625 743.6146885432222 L 295.921875 738.5020243452639 L 300.9375 733.3866860827807 L 305.953125 728.2685646189592 L 310.96875 723.1475449876239 L 315.984375 718.0235060150338 L 321 712.8963199135883 L 326.015625 707.7658518452097 L 331.03125 702.6319594519998 L 336.046875 697.4944923515973 L 341.0625 692.3532915944802 L 346.078125 687.2081890802809 L 351.09375 682.0590069300015 L 356.109375 676.9055568108496 L 361.125 671.7476392102608 L 366.140625 666.5850426555446 L 371.15625 661.4175428755104 L 376.171875 656.244901900397 L 381.1875 651.066867096492 L 386.203125 645.8831701320037 L 391.21875 640.6935258710812 L 396.234375 635.4976311934448 L 401.25 630.2951637379326 L 406.265625 625.085780569524 L 411.28125 619.8691167711731 L 416.296875 614.6447839642599 L 421.3125 609.4123687648676 L 426.32812500000006 604.1714311877201 L 431.34375 598.9215030158646 L 436.359375 593.6620861625682 L 441.375 588.39265106313 L 446.390625 583.1126351492715 L 451.40625 577.8214414787114 L 456.421875 572.5184376190471 L 461.4375 567.2029549203173 L 466.453125 561.8742883575057 L 471.46875 556.5316971866022 L 476.484375 551.174406740865 L 481.49999999999994 545.8016118045666 L 486.515625 540.4124821491373 L 491.53125 535.0061710138391 L 496.546875 529.5818275769019 L 501.5625 524.1386148163065 L 506.578125 518.6757346328178 L 511.59375 513.1924627426207 L 516.609375 507.6881966977183 L 521.625 502.1625215313294 L 526.640625 496.61529904658573 L 531.65625 491.04678878882845 L 536.671875 485.45781141000356 L 541.6875 479.84996861420547 L 546.703125 474.22593833284725 L 551.71875 468.58986933185355 L 556.734375 462.9479060546101 L 561.75 457.30888171922743 L 566.765625 451.68522427174827 L 571.78125 446.09412292964174 L 576.796875 440.55899705347935 L 581.8125 435.11128342304846 L 586.828125 429.7924945923976 L 591.84375 424.65637168943886 L 596.859375 419.7707220213524 L 601.875 415.21815848099726 L 606.890625 411.09444345669334 L 611.90625 407.50259761549466 L 616.921875 404.5407109031954 L 621.9375 402.2821614991636 L 626.953125 400.7495338357562 L 631.96875 399.8881389851865 L 636.984375 399.54996741438276 L 642 399.5 L 647.015625 399.45003258561724 L 652.03125 399.1118610148135 L 657.046875 398.2504661642438 L 662.0625 396.7178385008364 L 667.078125 394.4592890968046 L 672.09375 391.49740238450534 L 677.109375 387.90555654330666 L 682.125 383.78184151900274 L 687.140625 379.2292779786476 L 692.15625 374.34362831056114 L 697.171875 369.2075054076024 L 702.1875 363.88871657695154 L 707.203125 358.44100294652065 L 712.21875 352.90587707035826 L 717.234375 347.31477572825173 L 722.25 341.69111828077257 L 727.265625 336.0520939453899 L 732.28125 330.41013066814645 L 737.296875 324.77406166715275 L 742.3125 319.15003138579453 L 747.328125 313.54218858999644 L 752.34375 307.95321121117155 L 757.359375 302.38470095341427 L 762.375 296.8374784686706 L 767.390625 291.3118033022817 L 772.40625 285.8075372573793 L 777.421875 280.3242653671822 L 782.4375 274.8613851836936 L 787.453125 269.4181724230981 L 792.46875 263.99382898616085 L 797.484375 258.58751785086264 L 802.5 253.19838819543335 L 807.5156249999999 247.82559325913505 L 812.53125 242.4683028133978 L 817.546875 237.12571164249428 L 822.5624999999999 231.79704507968273 L 827.578125 226.48156238095288 L 832.59375 221.1785585212885 L 837.6093750000001 215.8873648507284 L 842.625 210.60734893686998 L 847.640625 205.33791383743176 L 852.6562500000001 200.07849698413537 L 857.671875 194.82856881227988 L 862.6875 189.58763123513242 L 867.703125 184.35521603574 L 872.71875 179.130883228827 L 877.734375 173.91421943047598 L 882.75 168.70483626206726 L 887.765625 163.50236880655524 L 892.78125 158.30647412891886 L 897.796875 153.1168298679963 L 902.8125 147.93313290350798 L 907.828125 142.755098099603 L 912.84375 137.58245712448945 L 917.859375 132.4149573444554 L 922.875 127.25236078973921 L 927.890625 122.09444318915035 L 932.90625 116.94099306999863 L 937.921875 111.79181091971907 L 942.9375 106.64670840551969 L 947.9531249999999 101.50550764840284 L 952.96875 96.3680405480003 L 957.984375 91.23414815479032 L 962.9999999999999 86.10368008641177 L 968.015625 80.97649398496617 L 973.03125 75.85245501237603 L 978.046875 70.73143538104074 L 983.0625 65.61331391721933 L 988.078125 60.49797565473608 L 993.09375 55.38531145677774 L 998.109375 50.275217663705575 L 1003.125 45.16759576496082 L 1008.140625 40.06235209328588 L 1013.15625 34.959397539610165 L 1018.171875 29.85864728708117 L 1023.1875 24.760020562835734 L 1028.203125 19.6634404062101 L 1033.21875 14.568833452191484 L 1038.234375 9.476129729006516 L 1043.25 4.385262468821679 L 1048.265625 -0.7038320693844184 L 1053.28125 -5.7912147656469415" stroke-opacity="0.8" stroke-linecap="round" stroke-linejoin="round" stroke-miterlimit="10" stroke-width="2.5"/><text fill="rgb(0,103,88)" stroke="none" font-family="geogebra-sans-serif, sans-serif" font-size="16px" font-style="normal" font-weight="normal" text-decoration="normal" x="277" y="723" text-anchor="start" dominant-baseline="alphabetic" fill-opacity="1">a=0</text><text fill="none" stroke="rgb(255,255,255)" font-family="geogebra-sans-serif, sans-serif" font-size="16px" font-style="normal" font-weight="normal" text-decoration="normal" x="277" y="723" text-anchor="start" dominant-baseline="alphabetic" stroke-opacity="1" stroke-linejoin="bevel" stroke-miterlimit="10" stroke-width="3">a=0</text><text fill="rgb(0,103,88)" stroke="none" font-family="geogebra-sans-serif, sans-serif" font-size="16px" font-style="normal" font-weight="normal" text-decoration="normal" x="277" y="723" text-anchor="start" dominant-baseline="alphabetic" fill-opacity="1">a=0</text><path fill="none" stroke="rgb(21,101,192)" paint-order="fill stroke markers" d=" M 235.734375 805.7656250000003 L 240.75 800.7500000000003 L 245.765625 795.7343750000003 L 250.78125 790.7187500000003 L 255.796875 785.7031250000002 L 260.8125 780.6875000000003 L 265.828125 775.6718750000003 L 270.84375 770.6562500000002 L 275.859375 765.6406250000002 L 280.875 760.6250000000003 L 285.890625 755.6093750000002 L 290.90625 750.5937500000002 L 295.921875 745.5781250000002 L 300.9375 740.5625000000002 L 305.953125 735.5468750000002 L 310.96875 730.5312500000002 L 315.984375 725.5156250000002 L 321 720.5000000000002 L 326.015625 715.4843750000002 L 331.03125 710.4687500000002 L 336.046875 705.4531250000002 L 341.0625 700.4375000000002 L 346.078125 695.4218750000002 L 351.09375 690.4062500000002 L 356.109375 685.3906250000002 L 361.125 680.3750000000002 L 366.140625 675.3593750000002 L 371.15625 670.3437500000002 L 376.171875 665.3281250000002 L 381.1875 660.3125000000002 L 386.203125 655.2968750000002 L 391.21875 650.2812500000002 L 396.234375 645.2656250000002 L 401.25 640.2500000000002 L 406.265625 635.2343750000002 L 411.28125 630.2187500000002 L 416.296875 625.2031250000002 L 421.3125 620.1875000000002 L 426.32812500000006 615.1718750000001 L 431.34375 610.1562500000002 L 436.359375 605.1406250000002 L 441.375 600.1250000000001 L 446.390625 595.1093750000002 L 451.40625 590.0937500000002 L 456.421875 585.0781250000001 L 461.4375 580.0625000000002 L 466.453125 575.0468750000002 L 471.46875 570.0312500000001 L 476.484375 565.0156250000001 L 481.49999999999994 560.0000000000002 L 486.515625 554.9843750000001 L 491.53125 549.9687500000001 L 496.546875 544.9531250000001 L 501.5625 539.9375000000001 L 506.578125 534.9218750000001 L 511.59375 529.9062500000001 L 516.609375 524.8906250000001 L 521.625 519.8750000000001 L 526.640625 514.8593750000001 L 531.65625 509.8437500000001 L 536.671875 504.8281250000001 L 541.6875 499.81250000000006 L 546.703125 494.7968750000001 L 551.71875 489.78125 L 556.734375 484.76562500000006 L 561.75 479.7500000000001 L 566.765625 474.734375 L 571.78125 469.71875000000006 L 576.796875 464.7031250000001 L 581.8125 459.6875 L 586.828125 454.67187500000006 L 591.84375 449.65625000000006 L 596.859375 444.640625 L 601.875 439.62500000000006 L 606.890625 434.60937500000006 L 611.90625 429.59375 L 616.921875 424.57812500000006 L 621.9375 419.5625 L 626.953125 414.546875 L 631.96875 409.53125000000006 L 636.984375 404.515625 L 642 399.5 L 647.015625 394.484375 L 652.03125 389.46874999999994 L 657.046875 384.453125 L 662.0625 379.4375 L 667.078125 374.42187499999994 L 672.09375 369.40625 L 677.109375 364.39062499999994 L 682.125 359.37499999999994 L 687.140625 354.359375 L 692.15625 349.34374999999994 L 697.171875 344.32812499999994 L 702.1875 339.3125 L 707.203125 334.2968749999999 L 712.21875 329.28124999999994 L 717.234375 324.265625 L 722.25 319.2499999999999 L 727.265625 314.23437499999994 L 732.28125 309.21875 L 737.296875 304.2031249999999 L 742.3125 299.18749999999994 L 747.328125 294.1718749999999 L 752.34375 289.1562499999999 L 757.359375 284.14062499999994 L 762.375 279.1249999999999 L 767.390625 274.1093749999999 L 772.40625 269.0937499999999 L 777.421875 264.0781249999999 L 782.4375 259.0624999999999 L 787.453125 254.04687499999991 L 792.46875 249.03124999999986 L 797.484375 244.0156249999999 L 802.5 238.99999999999983 L 807.5156249999999 233.98437499999994 L 812.53125 228.9687499999999 L 817.546875 223.9531249999998 L 822.5624999999999 218.93749999999994 L 827.578125 213.92187499999986 L 832.59375 208.9062499999998 L 837.6093750000001 203.89062499999974 L 842.625 198.87499999999986 L 847.640625 193.8593749999998 L 852.6562500000001 188.84374999999974 L 857.671875 183.82812499999986 L 862.6875 178.8124999999998 L 867.703125 173.79687499999974 L 872.71875 168.78124999999986 L 877.734375 163.7656249999998 L 882.75 158.74999999999974 L 887.765625 153.73437499999986 L 892.78125 148.71874999999977 L 897.796875 143.70312499999972 L 902.8125 138.68749999999983 L 907.828125 133.67187499999977 L 912.84375 128.65624999999972 L 917.859375 123.64062499999983 L 922.875 118.62499999999977 L 927.890625 113.60937499999972 L 932.90625 108.59374999999983 L 937.921875 103.57812499999977 L 942.9375 98.56249999999972 L 947.9531249999999 93.54687499999983 L 952.96875 88.53124999999977 L 957.984375 83.51562499999972 L 962.9999999999999 78.49999999999983 L 968.015625 73.48437499999977 L 973.03125 68.46874999999972 L 978.046875 63.45312499999966 L 983.0625 58.43749999999977 L 988.078125 53.421874999999716 L 993.09375 48.4062499999996 L 998.109375 43.39062499999977 L 1003.125 38.37499999999966 L 1008.140625 33.3593749999996 L 1013.15625 28.343749999999716 L 1018.171875 23.32812499999966 L 1023.1875 18.312499999999602 L 1028.203125 13.296874999999716 L 1033.21875 8.281249999999659 L 1038.234375 3.265624999999602 L 1043.25 -1.7500000000002842 L 1048.265625 -6.765625000000341" stroke-opacity="0.8" stroke-linecap="round" stroke-linejoin="round" stroke-miterlimit="10" stroke-width="2.5"/><text fill="rgb(21,101,192)" stroke="none" font-family="geogebra-sans-serif, sans-serif" font-size="16px" font-style="normal" font-weight="normal" text-decoration="normal" x="300" y="740" text-anchor="start" dominant-baseline="alphabetic" fill-opacity="1">a=1</text><text fill="none" stroke="rgb(255,255,255)" font-family="geogebra-sans-serif, sans-serif" font-size="16px" font-style="normal" font-weight="normal" text-decoration="normal" x="300" y="740" text-anchor="start" dominant-baseline="alphabetic" stroke-opacity="1" stroke-linejoin="bevel" stroke-miterlimit="10" stroke-width="3">a=1</text><text fill="rgb(21,101,192)" stroke="none" font-family="geogebra-sans-serif, sans-serif" font-size="16px" font-style="normal" font-weight="normal" text-decoration="normal" x="300" y="740" text-anchor="start" dominant-baseline="alphabetic" fill-opacity="1">a=1</text><path fill="none" stroke="rgb(211,47,47)" paint-order="fill stroke markers" d=" M 240.75 806.8852624688222 L 245.765625 801.9448797290074 L 250.78125 797.0063334521922 L 255.796875 792.0696904062107 L 260.8125 787.1350205628364 L 265.828125 782.2023972870818 L 270.84375 777.2718975396108 L 275.859375 772.3436020932866 L 280.875 767.4175957649613 L 285.890625 762.4939676637061 L 290.90625 757.5728114567784 L 295.921875 752.6542256547366 L 300.9375 747.7383139172198 L 305.953125 742.8251853810414 L 310.96875 737.9149550123766 L 315.984375 733.0077439849667 L 321 728.1036800864122 L 326.015625 723.2028981547909 L 331.03125 718.3055405480009 L 336.046875 713.4117576484032 L 341.0625 708.5217084055203 L 346.078125 703.6355609197196 L 351.09375 698.753493069999 L 356.109375 693.875693189151 L 361.125 689.0023607897397 L 366.140625 684.1337073444558 L 371.15625 679.26995712449 L 376.171875 674.4113480996034 L 381.1875 669.5581329035084 L 386.203125 664.7105798679968 L 391.21875 659.8689741289193 L 396.234375 655.0336188065556 L 401.25 650.2048362620677 L 406.265625 645.3829694304764 L 411.28125 640.5683832288273 L 416.296875 635.7614660357405 L 421.3125 630.9626312351328 L 426.32812500000006 626.1723188122801 L 431.34375 621.3909969841358 L 436.359375 616.6191638374322 L 441.375 611.8573489368703 L 446.390625 607.1061148507288 L 451.40625 602.3660585212889 L 456.421875 597.6378123809532 L 461.4375 592.9220450796829 L 466.453125 588.2194616424946 L 471.46875 583.530802813398 L 476.484375 578.8568432591353 L 481.49999999999994 574.1983881954337 L 486.515625 569.5562678508629 L 491.53125 564.9313289861611 L 496.546875 560.3244224230982 L 501.5625 555.7363851836938 L 506.578125 551.1680153671825 L 511.59375 546.6200372573794 L 516.609375 542.0930533022819 L 521.625 537.5874784686708 L 526.640625 533.1034509534144 L 531.65625 528.6407112111717 L 536.671875 524.1984385899967 L 541.6875 519.7750313857946 L 546.703125 515.367811667153 L 551.71875 510.9726306681465 L 556.734375 506.58334394539 L 561.75 502.19111828077274 L 566.765625 497.7835257282518 L 571.78125 493.3433770703584 L 576.796875 488.8472529465208 L 581.8125 484.2637165769516 L 586.828125 479.5512554076025 L 591.84375 474.65612831056126 L 596.859375 469.5105279786476 L 601.875 464.0318415190028 L 606.890625 458.12430654330683 L 611.90625 451.6849023845054 L 616.921875 444.61553909680464 L 621.9375 436.84283850083636 L 626.953125 428.3442161642438 L 631.96875 419.1743610148136 L 636.984375 409.4812825856172 L 642 399.5 L 647.015625 389.5187174143828 L 652.03125 379.8256389851864 L 657.046875 370.6557838357562 L 662.0625 362.15716149916364 L 667.078125 354.38446090319536 L 672.09375 347.3150976154946 L 677.109375 340.87569345669317 L 682.125 334.9681584809972 L 687.140625 329.4894720213524 L 692.15625 324.34387168943874 L 697.171875 319.4487445923975 L 702.1875 314.7362834230484 L 707.203125 310.1527470534792 L 712.21875 305.6566229296416 L 717.234375 301.2164742717482 L 722.25 296.80888171922726 L 727.265625 292.41665605461 L 732.28125 288.0273693318535 L 737.296875 283.632188332847 L 742.3125 279.22496861420535 L 747.328125 274.8015614100033 L 752.34375 270.3592887888283 L 757.359375 265.8965490465856 L 762.375 261.41252153132916 L 767.390625 256.9069466977181 L 772.40625 252.37996274262056 L 777.421875 247.83198463281752 L 782.4375 243.2636148163062 L 787.453125 238.67557757690176 L 792.46875 234.0686710138389 L 797.484375 229.4437321491371 L 802.5 224.80161180456628 L 807.5156249999999 220.1431567408648 L 812.53125 215.46919718660195 L 817.546875 210.78053835750538 L 822.5624999999999 206.07795492031715 L 827.578125 201.3621876190469 L 832.59375 196.63394147871108 L 837.6093750000001 191.89388514927109 L 842.625 187.14265106312976 L 847.640625 182.38083616256782 L 852.6562500000001 177.60900301586412 L 857.671875 172.82768118771986 L 862.6875 168.03736876486718 L 867.703125 163.23853396425943 L 872.71875 158.4316167711727 L 877.734375 153.61703056952365 L 882.75 148.7951637379322 L 887.765625 143.96638119344445 L 892.78125 139.13102587108074 L 897.796875 134.28942013200316 L 902.8125 129.44186709649165 L 907.828125 124.58865190039654 L 912.84375 119.73004287550992 L 917.859375 114.86629265554427 L 922.875 109.99763921026027 L 927.890625 105.12430681084902 L 932.90625 100.24650693000098 L 937.921875 95.36443908028042 L 942.9375 90.47829159447974 L 947.9531249999999 85.58824235159676 L 952.96875 80.6944594519992 L 957.984375 75.79710184520906 L 962.9999999999999 70.89631991358794 L 968.015625 65.99225601503332 L 973.03125 61.085044987623405 L 978.046875 56.17481461895858 L 983.0625 51.261686082780216 L 988.078125 46.34577434526335 L 993.09375 41.42718854322152 L 998.109375 36.50603233629391 L 1003.125 31.58240423503861 L 1008.140625 26.65639790671338 L 1013.15625 21.728102460389266 L 1018.171875 16.79760271291815 L 1023.1875 11.864979437163527 L 1028.203125 6.930309593789332 L 1033.21875 1.9936665478078908 L 1038.234375 -2.944879729007255 L 1043.25 -7.885262468822248" stroke-opacity="0.8" stroke-linecap="round" stroke-linejoin="round" stroke-miterlimit="10" stroke-width="2.5"/><text fill="rgb(211,47,47)" stroke="none" font-family="geogebra-sans-serif, sans-serif" font-size="16px" font-style="normal" font-weight="normal" text-decoration="normal" x="287" y="756" text-anchor="start" dominant-baseline="alphabetic" fill-opacity="1">a=2</text><text fill="none" stroke="rgb(255,255,255)" font-family="geogebra-sans-serif, sans-serif" font-size="16px" font-style="normal" font-weight="normal" text-decoration="normal" x="287" y="756" text-anchor="start" dominant-baseline="alphabetic" stroke-opacity="1" stroke-linejoin="bevel" stroke-miterlimit="10" stroke-width="3">a=2</text><text fill="rgb(211,47,47)" stroke="none" font-family="geogebra-sans-serif, sans-serif" font-size="16px" font-style="normal" font-weight="normal" text-decoration="normal" x="287" y="756" text-anchor="start" dominant-baseline="alphabetic" fill-opacity="1">a=2</text><path fill="none" stroke="rgb(199,80,0)" paint-order="fill stroke markers" d=" M 260.8125 806.4775822513446 L 265.828125 801.7939641483263 L 270.84375 797.118840158442 L 275.859375 792.4525333731453 L 280.875 787.7953830598449 L 285.890625 783.1477456548236 L 290.90625 778.5099958271128 L 295.921875 773.8825276189459 L 300.9375 769.2657556688785 L 305.953125 764.6601165241646 L 310.96875 760.0660700495057 L 315.984375 755.484100939866 L 321 750.914720345648 L 326.015625 746.3584676191628 L 331.03125 741.8159121920025 L 336.046875 737.2876555936123 L 341.0625 732.7743336220803 L 346.078125 728.2766186788776 L 351.09375 723.7952222799955 L 356.109375 719.3308977566028 L 361.125 714.8844431589581 L 366.140625 710.4567043778227 L 371.15625 706.0485784979594 L 376.171875 701.6610173984132 L 381.1875 697.295031614033 L 386.203125 692.9516944719866 L 391.21875 688.6321465156764 L 396.234375 684.3376002262216 L 401.25 680.0693450482703 L 406.265625 675.828752721905 L 411.28125 671.6172829153087 L 416.296875 667.4364891429614 L 421.3125 663.2880249405307 L 426.32812500000006 659.1736502491201 L 431.34375 655.0952379365427 L 436.359375 651.054780349728 L 441.375 647.0543957474806 L 446.390625 643.096334402915 L 451.40625 639.182984085155 L 456.421875 635.3168745238121 L 461.4375 631.5006803187313 L 466.453125 627.737221569978 L 471.46875 624.0294612535918 L 476.484375 620.3804980365405 L 481.49999999999994 616.7935527817342 L 486.515625 613.2719464034512 L 491.53125 609.8190659446441 L 496.546875 606.4383146923926 L 501.5625 603.1330407347749 L 506.578125 599.9064364687295 L 511.59375 596.7613990295176 L 516.609375 593.7003382091273 L 521.625 590.724913874683 L 526.640625 587.8356788136573 L 531.65625 585.0315948446867 L 536.671875 582.3093793599865 L 541.6875 579.6626255431785 L 546.703125 577.0806216686115 L 551.71875 574.546772672586 L 556.734375 572.03650078156 L 561.75 569.5144731230907 L 566.765625 566.930977913007 L 571.78125 564.2172582814334 L 576.796875 561.2796367860831 L 581.8125 557.9923663078064 L 586.828125 554.1893966304099 L 591.84375 549.6557632422449 L 596.859375 544.1202369145904 L 601.875 537.2523660760111 L 606.890625 528.669101173227 L 609.3984375 523.6054254659485 L 611.90625 517.9583595380215 L 614.4140625 511.67984517317507 L 616.921875 504.72778138721844 L 619.4296875 497.06921578463164 L 621.9375 488.68385400334563 L 624.4453125 479.56766186117363 L 626.953125 469.73623965697516 L 628.20703125 464.56325710640607 L 629.4609375 459.2275690299369 L 630.71484375 453.7376971780336 L 631.96875 448.1036940592542 L 633.22265625 442.33710900091705 L 634.4765625 436.4509243397679 L 635.73046875 430.459461201157 L 636.984375 424.3782553424688 L 638.23828125 418.223904618247 L 639.4921875 412.013890715201 L 640.74609375 405.76637884406404 L 642 399.5 L 643.25390625 393.23362115593596 L 644.5078125 386.986109284799 L 645.76171875 380.776095381753 L 647.015625 374.6217446575312 L 648.26953125 368.540538798843 L 649.5234375 362.5490756602321 L 650.77734375 356.66289099908295 L 652.03125 350.8963059407458 L 653.28515625 345.2623028219664 L 654.5390625 339.7724309700631 L 655.79296875 334.43674289359393 L 657.046875 329.26376034302484 L 659.5546875 319.43233813882637 L 662.0625 310.31614599665437 L 664.5703125 301.93078421536836 L 667.078125 294.27221861278156 L 669.5859375 287.32015482682493 L 672.09375 281.04164046197855 L 674.6015625 275.39457453405146 L 677.109375 270.330898826773 L 682.125 261.74763392398893 L 687.140625 254.87976308540962 L 692.15625 249.3442367577551 L 697.171875 244.81060336959015 L 702.1875 241.00763369219362 L 707.203125 237.72036321391695 L 712.21875 234.78274171856663 L 717.234375 232.06902208699293 L 722.25 229.48552687690923 L 727.265625 226.96349921844003 L 732.28125 224.45322732741394 L 737.296875 221.9193783313885 L 742.3125 219.33737445682152 L 747.328125 216.69062064001352 L 752.34375 213.96840515531332 L 757.359375 211.16432118634273 L 762.375 208.275086125317 L 767.390625 205.2996617908728 L 772.40625 202.23860097048242 L 777.421875 199.09356353127055 L 782.4375 195.86695926522506 L 787.453125 192.56168530760735 L 792.46875 189.18093405535592 L 797.484375 185.72805359654876 L 802.5 182.20644721826574 L 807.5156249999999 178.61950196345958 L 812.53125 174.97053874640824 L 817.546875 171.26277843002194 L 822.5624999999999 167.49931968126873 L 827.578125 163.68312547618788 L 832.59375 159.817015914845 L 837.6093750000001 155.903665597085 L 842.625 151.94560425251944 L 847.640625 147.94521965027192 L 852.6562500000001 143.9047620634572 L 857.671875 139.82634975087984 L 862.6875 135.71197505946935 L 867.703125 131.56351085703864 L 872.71875 127.38271708469142 L 877.734375 123.17124727809511 L 882.75 118.9306549517296 L 887.765625 114.66239977377836 L 892.78125 110.36785348432358 L 897.796875 106.04830552801337 L 902.8125 101.70496838596728 L 907.828125 97.33898260158679 L 912.84375 92.95142150204066 L 917.859375 88.54329562217742 L 922.875 84.1155568410419 L 927.890625 79.66910224339722 L 932.90625 75.20477772000459 L 937.921875 70.72338132112242 L 942.9375 66.22566637791965 L 947.9531249999999 61.712344406387786 L 952.96875 57.18408780799757 L 957.984375 52.64153238083719 L 962.9999999999999 48.08527965435212 L 968.015625 43.51589906013396 L 973.03125 38.933929950494246 L 978.046875 34.339883475835336 L 983.0625 29.734244331121488 L 988.078125 25.117472381054085 L 993.09375 20.49000417288704 L 998.109375 15.852254345176448 L 1003.125 11.204616940155063 L 1008.140625 6.547466626854543 L 1013.15625 1.8811598415580875 L 1018.171875 -2.7939641483262108 L 1023.1875 -7.4775822513447565" stroke-opacity="0.8" stroke-linecap="round" stroke-linejoin="round" stroke-miterlimit="10" stroke-width="2.5"/><text fill="rgb(199,80,0)" stroke="none" font-family="geogebra-sans-serif, sans-serif" font-size="16px" font-style="normal" font-weight="normal" text-decoration="normal" x="294" y="776" text-anchor="start" dominant-baseline="alphabetic" fill-opacity="1">a=5</text><text fill="none" stroke="rgb(255,255,255)" font-family="geogebra-sans-serif, sans-serif" font-size="16px" font-style="normal" font-weight="normal" text-decoration="normal" x="294" y="776" text-anchor="start" dominant-baseline="alphabetic" stroke-opacity="1" stroke-linejoin="bevel" stroke-miterlimit="10" stroke-width="3">a=5</text><text fill="rgb(199,80,0)" stroke="none" font-family="geogebra-sans-serif, sans-serif" font-size="16px" font-style="normal" font-weight="normal" text-decoration="normal" x="294" y="776" text-anchor="start" dominant-baseline="alphabetic" fill-opacity="1">a=5</text><path fill="none" stroke="rgb(101,87,210)" paint-order="fill stroke markers" d=" M 290.90625 806.4262416542254 L 295.921875 802.1869302378914 L 300.9375 797.9690113377567 L 305.953125 793.7733580483289 L 310.96875 789.6008900990112 L 315.984375 785.4525768797319 L 321 781.3294406912956 L 326.015625 777.2325602383253 L 331.03125 773.1630743840046 L 336.046875 769.1221861872243 L 341.0625 765.1111672441605 L 346.078125 761.1313623577548 L 351.09375 757.1841945599908 L 356.109375 753.2711705132053 L 361.125 749.3938863179161 L 366.140625 745.554033755645 L 371.15625 741.7534069959183 L 376.171875 737.9939097968261 L 381.1875 734.2775632280654 L 386.203125 730.6065139439729 L 391.21875 726.9830430313527 L 396.234375 723.4095754524432 L 401.25 719.8886900965406 L 406.265625 716.4231304438097 L 411.28125 713.0158158306172 L 416.296875 709.6698532859225 L 421.3125 706.3885498810611 L 426.32812500000006 703.1754254982402 L 431.34375 700.0342258730852 L 436.359375 696.9689356994559 L 441.375 693.983791494961 L 446.390625 691.0832938058297 L 451.40625 688.2722181703098 L 456.421875 685.555624047624 L 461.4375 682.9388606374625 L 466.453125 680.4275681399558 L 471.46875 678.0276725071835 L 476.484375 675.7453710730808 L 481.49999999999994 673.5871055634684 L 486.515625 671.5595178069022 L 491.53125 669.6693818892879 L 496.546875 667.9235043847852 L 501.5625 666.3285814695497 L 506.578125 664.8909979374587 L 511.59375 663.616548059035 L 516.609375 662.5100514182543 L 521.625 661.5748277493659 L 526.640625 660.8119826273145 L 531.65625 660.2194396893733 L 536.671875 659.7906337199729 L 541.6875 659.5127510863568 L 546.703125 659.3643683372229 L 551.71875 659.3122953451721 L 556.734375 659.3073765631199 L 561.75 659.2789462461814 L 566.765625 659.1275808260141 L 571.78125 658.7157665628667 L 576.796875 657.856148572166 L 581.8125 656.2972326156128 L 584.3203125 655.1553819185127 L 586.828125 653.7069182608195 L 591.84375 649.6552764844897 L 594.3515625 646.9165962791859 L 596.859375 643.5998488291807 L 601.875 634.8797321520221 L 604.3828125 629.2841362783196 L 606.890625 622.7288273464538 L 609.3984375 615.109288431897 L 611.90625 606.3229690760429 L 613.16015625 601.4618357945687 L 614.4140625 596.2737528463502 L 615.66796875 590.7486105943128 L 616.921875 584.8774377744369 L 618.17578125 578.6526189049541 L 619.4296875 572.0681190692633 L 620.68359375 565.1197121745178 L 621.9375 557.8052080066913 L 623.19140625 550.124672656356 L 624.4453125 542.0806362223473 L 625.69921875 533.6782811633951 L 626.953125 524.9256043139503 L 628.20703125 515.8335454628121 L 629.4609375 506.41607555987383 L 630.71484375 496.6902381060672 L 631.341796875 491.7178462273578 L 631.96875 486.6761381185084 L 632.595703125 481.5680941389147 L 633.22265625 476.39687425183405 L 633.849609375 471.1658126086008 L 634.4765625 465.87841117953576 L 635.103515625 460.5383324429637 L 635.73046875 455.14939115231397 L 636.357421875 449.7155452099404 L 636.984375 444.2408856849376 L 637.611328125 438.72962602073574 L 638.23828125 433.1860904864939 L 638.865234375 427.61470193415744 L 639.4921875 422.019968930402 L 640.119140625 416.4064723393722 L 640.74609375 410.778851438128 L 641.373046875 405.1417896518394 L 642 399.5 L 642.626953125 393.8582103481606 L 643.25390625 388.221148561872 L 643.880859375 382.5935276606278 L 644.5078125 376.980031069598 L 645.134765625 371.38529806584256 L 645.76171875 365.8139095135061 L 646.388671875 360.27037397926426 L 647.015625 354.7591143150624 L 647.642578125 349.2844547900596 L 648.26953125 343.85060884768603 L 648.896484375 338.4616675570363 L 649.5234375 333.12158882046424 L 650.150390625 327.8341873913992 L 650.77734375 322.60312574816595 L 651.404296875 317.4319058610853 L 652.03125 312.3238618814916 L 652.658203125 307.2821537726422 L 653.28515625 302.3097618939328 L 654.5390625 292.58392444012617 L 655.79296875 283.16645453718786 L 657.046875 274.0743956860496 L 658.30078125 265.3217188366049 L 659.5546875 256.9193637776528 L 660.80859375 248.87532734364405 L 662.0625 241.1947919933087 L 663.31640625 233.88028782548227 L 664.5703125 226.9318809307367 L 665.82421875 220.34738109504588 L 667.078125 214.12256222556306 L 668.33203125 208.25138940568715 L 669.5859375 202.72624715364978 L 670.83984375 197.53816420543123 L 672.09375 192.67703092395715 L 674.6015625 183.89071156810303 L 677.109375 176.27117265354613 L 679.6171875 169.7158637216804 L 682.125 164.12026784797786 L 687.140625 155.40015117081927 L 692.15625 149.3447235155103 L 694.6640625 147.10510311379576 L 697.171875 145.29308173918042 L 702.1875 142.70276738438724 L 704.6953125 141.81723369550684 L 707.203125 141.14385142783397 L 712.21875 140.2842334371333 L 717.234375 139.87241917398586 L 722.25 139.72105375381864 L 727.265625 139.69262343688013 L 732.28125 139.68770465482794 L 737.296875 139.63563166277703 L 742.3125 139.48724891364316 L 747.328125 139.20936628002715 L 752.34375 138.7805603106267 L 757.359375 138.18801737268552 L 762.375 137.4251722506341 L 767.390625 136.4899485817457 L 772.40625 135.38345194096496 L 777.421875 134.10900206254126 L 782.4375 132.6714185304503 L 787.453125 131.0764956152147 L 792.46875 129.330618110712 L 797.484375 127.4404821930977 L 802.5 125.41289443653164 L 807.5156249999999 123.25462892691911 L 812.53125 120.97232749281653 L 817.546875 118.5724318600441 L 822.5624999999999 116.06113936253757 L 827.578125 113.44437595237599 L 832.59375 110.72778182969017 L 837.6093750000001 107.91670619417027 L 842.625 105.016208505039 L 847.640625 102.03106430054407 L 852.6562500000001 98.96577412691465 L 857.671875 95.82457450175986 L 862.6875 92.61145011893893 L 867.703125 89.3301467140775 L 872.71875 85.9841841693829 L 877.734375 82.57686955619039 L 882.75 79.11130990345947 L 887.765625 75.59042454755684 L 892.78125 72.01695696864732 L 897.796875 68.39348605602709 L 902.8125 64.72243677193455 L 907.828125 61.00609020317387 L 912.84375 57.2465930040816 L 917.859375 53.44596624435496 L 922.875 49.6061136820839 L 927.890625 45.728829486794666 L 932.90625 41.81580544000934 L 937.921875 37.86863764224512 L 942.9375 33.88883275583959 L 947.9531249999999 29.87781381277574 L 952.96875 25.836925615995426 L 957.984375 21.767439761674666 L 962.9999999999999 17.670559308704355 L 968.015625 13.54742312026815 L 973.03125 9.39910990098872 L 978.046875 5.226641951670956 L 983.0625 1.03098866224326 L 988.078125 -3.1869302378914313 L 993.09375 -7.426241654225521" stroke-opacity="0.8" stroke-linecap="round" stroke-linejoin="round" stroke-miterlimit="10" stroke-width="2.5"/><text fill="rgb(101,87,210)" stroke="none" font-family="geogebra-sans-serif, sans-serif" font-size="16px" font-style="normal" font-weight="normal" text-decoration="normal" x="307" y="791" text-anchor="start" dominant-baseline="alphabetic" fill-opacity="1">a=9</text><text fill="none" stroke="rgb(255,255,255)" font-family="geogebra-sans-serif, sans-serif" font-size="16px" font-style="normal" font-weight="normal" text-decoration="normal" x="307" y="791" text-anchor="start" dominant-baseline="alphabetic" stroke-opacity="1" stroke-linejoin="bevel" stroke-miterlimit="10" stroke-width="3">a=9</text><text fill="rgb(101,87,210)" stroke="none" font-family="geogebra-sans-serif, sans-serif" font-size="16px" font-style="normal" font-weight="normal" text-decoration="normal" x="307" y="791" text-anchor="start" dominant-baseline="alphabetic" fill-opacity="1">a=9</text></g></g></svg>