<svg version="1.1" xmlns="http://www.w3.org/2000/svg" xmlns:xlink="http://www.w3.org/1999/xlink" width="1284" height="799"><defs><clipPath id="mnZRiqwsqnwv"><path fill="none" stroke="none" d=" M 0 0 L 1284 0 L 1284 799 L 0 799 L 0 0 Z"/></clipPath></defs><g transform="scale(1,1)" clip-path="url(#mnZRiqwsqnwv)"><g><rect fill="rgb(255,255,255)" stroke="none" x="0" y="0" width="1284" height="799" fill-opacity="1"/><path fill="none" stroke="rgb(192,192,192)" paint-order="fill stroke markers" d=" M 42.5 0.5 L 42.5 799.5 M 42.5 0.5 L 42.5 799.5 M 92.5 0.5 L 92.5 799.5 M 142.5 0.5 L 142.5 799.5 M 192.5 0.5 L 192.5 799.5 M 242.5 0.5 L 242.5 799.5 M 292.5 0.5 L 292.5 799.5 M 342.5 0.5 L 342.5 799.5 M 392.5 0.5 L 392.5 799.5 M 442.5 0.5 L 442.5 799.5 M 492.5 0.5 L 492.5 799.5 M 542.5 0.5 L 542.5 799.5 M 592.5 0.5 L 592.5 799.5 M 692.5 0.5 L 692.5 799.5 M 742.5 0.5 L 742.5 799.5 M 792.5 0.5 L 792.5 799.5 M 842.5 0.5 L 842.5 799.5 M 892.5 0.5 L 892.5 799.5 M 942.5 0.5 L 942.5 799.5 M 992.5 0.5 L 992.5 799.5 M 1042.5 0.5 L 1042.5 799.5 M 1092.5 0.5 L 1092.5 799.5 M 1142.5 0.5 L 1142.5 799.5 M 1192.5 0.5 L 1192.5 799.5 M 1242.5 0.5 L 1242.5 799.5" stroke-opacity="1" stroke-linecap="round" stroke-linejoin="round" stroke-miterlimit="10"/><path fill="none" stroke="rgb(192,192,192)" paint-order="fill stroke markers" d=" M 2.5 0.5 L 2.5 799.5 M 12.5 0.5 L 12.5 799.5 M 22.5 0.5 L 22.5 799.5 M 32.5 0.5 L 32.5 799.5 M 52.5 0.5 L 52.5 799.5 M 62.5 0.5 L 62.5 799.5 M 72.5 0.5 L 72.5 799.5 M 82.5 0.5 L 82.5 799.5 M 102.5 0.5 L 102.5 799.5 M 112.5 0.5 L 112.5 799.5 M 122.5 0.5 L 122.5 799.5 M 132.5 0.5 L 132.5 799.5 M 152.5 0.5 L 152.5 799.5 M 162.5 0.5 L 162.5 799.5 M 172.5 0.5 L 172.5 799.5 M 182.5 0.5 L 182.5 799.5 M 202.5 0.5 L 202.5 799.5 M 212.5 0.5 L 212.5 799.5 M 222.5 0.5 L 222.5 799.5 M 232.5 0.5 L 232.5 799.5 M 252.5 0.5 L 252.5 799.5 M 262.5 0.5 L 262.5 799.5 M 272.5 0.5 L 272.5 799.5 M 282.5 0.5 L 282.5 799.5 M 302.5 0.5 L 302.5 799.5 M 312.5 0.5 L 312.5 799.5 M 322.5 0.5 L 322.5 799.5 M 332.5 0.5 L 332.5 799.5 M 352.5 0.5 L 352.5 799.5 M 362.5 0.5 L 362.5 799.5 M 372.5 0.5 L 372.5 799.5 M 382.5 0.5 L 382.5 799.5 M 402.5 0.5 L 402.5 799.5 M 412.5 0.5 L 412.5 799.5 M 422.5 0.5 L 422.5 799.5 M 432.5 0.5 L 432.5 799.5 M 452.5 0.5 L 452.5 799.5 M 462.5 0.5 L 462.5 799.5 M 472.5 0.5 L 472.5 799.5 M 482.5 0.5 L 482.5 799.5 M 502.5 0.5 L 502.5 799.5 M 512.5 0.5 L 512.5 799.5 M 522.5 0.5 L 522.5 799.5 M 532.5 0.5 L 532.5 799.5 M 552.5 0.5 L 552.5 799.5 M 562.5 0.5 L 562.5 799.5 M 572.5 0.5 L 572.5 799.5 M 582.5 0.5 L 582.5 799.5 M 602.5 0.5 L 602.5 799.5 M 612.5 0.5 L 612.5 799.5 M 622.5 0.5 L 622.5 799.5 M 632.5 0.5 L 632.5 799.5 M 652.5 0.5 L 652.5 799.5 M 662.5 0.5 L 662.5 799.5 M 672.5 0.5 L 672.5 799.5 M 682.5 0.5 L 682.5 799.5 M 702.5 0.5 L 702.5 799.5 M 712.5 0.5 L 712.5 799.5 M 722.5 0.5 L 722.5 799.5 M 732.5 0.5 L 732.5 799.5 M 752.5 0.5 L 752.5 799.5 M 762.5 0.5 L 762.5 799.5 M 772.5 0.5 L 772.5 799.5 M 782.5 0.5 L 782.5 799.5 M 802.5 0.5 L 802.5 799.5 M 812.5 0.5 L 812.5 799.5 M 822.5 0.5 L 822.5 799.5 M 832.5 0.5 L 832.5 799.5 M 852.5 0.5 L 852.5 799.5 M 862.5 0.5 L 862.5 799.5 M 872.5 0.5 L 872.5 799.5 M 882.5 0.5 L 882.5 799.5 M 902.5 0.5 L 902.5 799.5 M 912.5 0.5 L 912.5 799.5 M 922.5 0.5 L 922.5 799.5 M 932.5 0.5 L 932.5 799.5 M 952.5 0.5 L 952.5 799.5 M 962.5 0.5 L 962.5 799.5 M 972.5 0.5 L 972.5 799.5 M 982.5 0.5 L 982.5 799.5 M 1002.5 0.5 L 1002.5 799.5 M 1012.5 0.5 L 1012.5 799.5 M 1022.5 0.5 L 1022.5 799.5 M 1032.5 0.5 L 1032.5 799.5 M 1052.5 0.5 L 1052.5 799.5 M 1062.5 0.5 L 1062.5 799.5 M 1072.5 0.5 L 1072.5 799.5 M 1082.5 0.5 L 1082.5 799.5 M 1102.5 0.5 L 1102.5 799.5 M 1112.5 0.5 L 1112.5 799.5 M 1122.5 0.5 L 1122.5 799.5 M 1132.5 0.5 L 1132.5 799.5 M 1152.5 0.5 L 1152.5 799.5 M 1162.5 0.5 L 1162.5 799.5 M 1172.5 0.5 L 1172.5 799.5 M 1182.5 0.5 L 1182.5 799.5 M 1202.5 0.5 L 1202.5 799.5 M 1212.5 0.5 L 1212.5 799.5 M 1222.5 0.5 L 1222.5 799.5 M 1232.5 0.5 L 1232.5 799.5 M 1252.5 0.5 L 1252.5 799.5 M 1262.5 0.5 L 1262.5 799.5 M 1272.5 0.5 L 1272.5 799.5 M 1282.5 0.5 L 1282.5 799.5" stroke-opacity="0.23529411764705882" stroke-linecap="round" stroke-linejoin="round" stroke-miterlimit="10"/><path fill="none" stroke="rgb(192,192,192)" paint-order="fill stroke markers" d=" M 0.5 49.5 L 1284.5 49.5 M 0.5 49.5 L 1284.5 49.5 M 0.5 99.5 L 1284.5 99.5 M 0.5 149.5 L 1284.5 149.5 M 0.5 199.5 L 1284.5 199.5 M 0.5 249.5 L 1284.5 249.5 M 0.5 299.5 L 1284.5 299.5 M 0.5 349.5 L 1284.5 349.5 M 0.5 449.5 L 1284.5 449.5 M 0.5 499.5 L 1284.5 499.5 M 0.5 549.5 L 1284.5 549.5 M 0.5 599.5 L 1284.5 599.5 M 0.5 649.5 L 1284.5 649.5 M 0.5 699.5 L 1284.5 699.5 M 0.5 749.5 L 1284.5 749.5" stroke-opacity="1" stroke-linecap="round" stroke-linejoin="round" stroke-miterlimit="10"/><path fill="none" stroke="rgb(192,192,192)" paint-order="fill stroke markers" d=" M 0.5 9.5 L 1284.5 9.5 M 0.5 19.5 L 1284.5 19.5 M 0.5 29.5 L 1284.5 29.5 M 0.5 39.5 L 1284.5 39.5 M 0.5 59.5 L 1284.5 59.5 M 0.5 69.5 L 1284.5 69.5 M 0.5 79.5 L 1284.5 79.5 M 0.5 89.5 L 1284.5 89.5 M 0.5 109.5 L 1284.5 109.5 M 0.5 119.5 L 1284.5 119.5 M 0.5 129.5 L 1284.5 129.5 M 0.5 139.5 L 1284.5 139.5 M 0.5 159.5 L 1284.5 159.5 M 0.5 169.5 L 1284.5 169.5 M 0.5 179.5 L 1284.5 179.5 M 0.5 189.5 L 1284.5 189.5 M 0.5 209.5 L 1284.5 209.5 M 0.5 219.5 L 1284.5 219.5 M 0.5 229.5 L 1284.5 229.5 M 0.5 239.5 L 1284.5 239.5 M 0.5 259.5 L 1284.5 259.5 M 0.5 269.5 L 1284.5 269.5 M 0.5 279.5 L 1284.5 279.5 M 0.5 289.5 L 1284.5 289.5 M 0.5 309.5 L 1284.5 309.5 M 0.5 319.5 L 1284.5 319.5 M 0.5 329.5 L 1284.5 329.5 M 0.5 339.5 L 1284.5 339.5 M 0.5 359.5 L 1284.5 359.5 M 0.5 369.5 L 1284.5 369.5 M 0.5 379.5 L 1284.5 379.5 M 0.5 389.5 L 1284.5 389.5 M 0.5 409.5 L 1284.5 409.5 M 0.5 419.5 L 1284.5 419.5 M 0.5 429.5 L 1284.5 429.5 M 0.5 439.5 L 1284.5 439.5 M 0.5 459.5 L 1284.5 459.5 M 0.5 469.5 L 1284.5 469.5 M 0.5 479.5 L 1284.5 479.5 M 0.5 489.5 L 1284.5 489.5 M 0.5 509.5 L 1284.5 509.5 M 0.5 519.5 L 1284.5 519.5 M 0.5 529.5 L 1284.5 529.5 M 0.5 539.5 L 1284.5 539.5 M 0.5 559.5 L 1284.5 559.5 M 0.5 569.5 L 1284.5 569.5 M 0.5 579.5 L 1284.5 579.5 M 0.5 589.5 L 1284.5 589.5 M 0.5 609.5 L 1284.5 609.5 M 0.5 619.5 L 1284.5 619.5 M 0.5 629.5 L 1284.5 629.5 M 0.5 639.5 L 1284.5 639.5 M 0.5 659.5 L 1284.5 659.5 M 0.5 669.5 L 1284.5 669.5 M 0.5 679.5 L 1284.5 679.5 M 0.5 689.5 L 1284.5 689.5 M 0.5 709.5 L 1284.5 709.5 M 0.5 719.5 L 1284.5 719.5 M 0.5 729.5 L 1284.5 729.5 M 0.5 739.5 L 1284.5 739.5 M 0.5 759.5 L 1284.5 759.5 M 0.5 769.5 L 1284.5 769.5 M 0.5 779.5 L 1284.5 779.5 M 0.5 789.5 L 1284.5 789.5" stroke-opacity="0.23529411764705882" stroke-linecap="round" stroke-linejoin="round" stroke-miterlimit="10"/><path fill="none" stroke="rgb(37,37,37)" paint-order="fill stroke markers" d=" M 642.5 2.5 L 642.5 799.5" stroke-opacity="1" stroke-miterlimit="10"/><path fill="none" stroke="rgb(37,37,37)" paint-order="fill stroke markers" d=" M 642.5 1.5 L 638.5 5.5" stroke-opacity="1" stroke-miterlimit="10"/><path fill="none" stroke="rgb(37,37,37)" paint-order="fill stroke markers" d=" M 642.5 1.5 L 646.5 5.5" stroke-opacity="1" stroke-miterlimit="10"/><path fill="none" stroke="rgb(37,37,37)" paint-order="fill stroke markers" d=" M 0.5 399.5 L 1282.5 399.5" stroke-opacity="1" stroke-miterlimit="10"/><path fill="none" stroke="rgb(37,37,37)" paint-order="fill stroke markers" d=" M 1283.5 399.5 L 1279.5 395.5" stroke-opacity="1" stroke-miterlimit="10"/><path fill="none" stroke="rgb(37,37,37)" paint-order="fill stroke markers" d=" M 1283.5 399.5 L 1279.5 403.5" stroke-opacity="1" stroke-miterlimit="10"/><text fill="rgb(37,37,37)" stroke="none" font-family="geogebra-sans-serif, sans-serif" font-size="12px" font-style="normal" font-weight="normal" text-decoration="normal" x="34" y="415" text-anchor="start" dominant-baseline="alphabetic" fill-opacity="1">–12</text><text fill="none" stroke="rgb(255,255,255)" font-family="geogebra-sans-serif, sans-serif" font-size="12px" font-style="normal" font-weight="normal" text-decoration="normal" x="34" y="415" text-anchor="start" dominant-baseline="alphabetic" stroke-opacity="1" stroke-linejoin="bevel" stroke-miterlimit="10" stroke-width="3">–12</text><text fill="rgb(37,37,37)" stroke="none" font-family="geogebra-sans-serif, sans-serif" font-size="12px" font-style="normal" font-weight="normal" text-decoration="normal" x="34" y="415" text-anchor="start" dominant-baseline="alphabetic" fill-opacity="1">–12</text><text fill="rgb(37,37,37)" stroke="none" font-family="geogebra-sans-serif, sans-serif" font-size="12px" font-style="normal" font-weight="normal" text-decoration="normal" x="84" y="415" text-anchor="start" dominant-baseline="alphabetic" fill-opacity="1">–11</text><text fill="none" stroke="rgb(255,255,255)" font-family="geogebra-sans-serif, sans-serif" font-size="12px" font-style="normal" font-weight="normal" text-decoration="normal" x="84" y="415" text-anchor="start" dominant-baseline="alphabetic" stroke-opacity="1" stroke-linejoin="bevel" stroke-miterlimit="10" stroke-width="3">–11</text><text fill="rgb(37,37,37)" stroke="none" font-family="geogebra-sans-serif, sans-serif" font-size="12px" font-style="normal" font-weight="normal" text-decoration="normal" x="84" y="415" text-anchor="start" dominant-baseline="alphabetic" fill-opacity="1">–11</text><text fill="rgb(37,37,37)" stroke="none" font-family="geogebra-sans-serif, sans-serif" font-size="12px" font-style="normal" font-weight="normal" text-decoration="normal" x="134" y="415" text-anchor="start" dominant-baseline="alphabetic" fill-opacity="1">–10</text><text fill="none" stroke="rgb(255,255,255)" font-family="geogebra-sans-serif, sans-serif" font-size="12px" font-style="normal" font-weight="normal" text-decoration="normal" x="134" y="415" text-anchor="start" dominant-baseline="alphabetic" stroke-opacity="1" stroke-linejoin="bevel" stroke-miterlimit="10" stroke-width="3">–10</text><text fill="rgb(37,37,37)" stroke="none" font-family="geogebra-sans-serif, sans-serif" font-size="12px" font-style="normal" font-weight="normal" text-decoration="normal" x="134" y="415" text-anchor="start" dominant-baseline="alphabetic" fill-opacity="1">–10</text><text fill="rgb(37,37,37)" stroke="none" font-family="geogebra-sans-serif, sans-serif" font-size="12px" font-style="normal" font-weight="normal" text-decoration="normal" x="187" y="415" text-anchor="start" dominant-baseline="alphabetic" fill-opacity="1">–9</text><text fill="none" stroke="rgb(255,255,255)" font-family="geogebra-sans-serif, sans-serif" font-size="12px" font-style="normal" font-weight="normal" text-decoration="normal" x="187" y="415" text-anchor="start" dominant-baseline="alphabetic" stroke-opacity="1" stroke-linejoin="bevel" stroke-miterlimit="10" stroke-width="3">–9</text><text fill="rgb(37,37,37)" stroke="none" font-family="geogebra-sans-serif, sans-serif" font-size="12px" font-style="normal" font-weight="normal" text-decoration="normal" x="187" y="415" text-anchor="start" dominant-baseline="alphabetic" fill-opacity="1">–9</text><text fill="rgb(37,37,37)" stroke="none" font-family="geogebra-sans-serif, sans-serif" font-size="12px" font-style="normal" font-weight="normal" text-decoration="normal" x="237" y="415" text-anchor="start" dominant-baseline="alphabetic" fill-opacity="1">–8</text><text fill="none" stroke="rgb(255,255,255)" font-family="geogebra-sans-serif, sans-serif" font-size="12px" font-style="normal" font-weight="normal" text-decoration="normal" x="237" y="415" text-anchor="start" dominant-baseline="alphabetic" stroke-opacity="1" stroke-linejoin="bevel" stroke-miterlimit="10" stroke-width="3">–8</text><text fill="rgb(37,37,37)" stroke="none" font-family="geogebra-sans-serif, sans-serif" font-size="12px" font-style="normal" font-weight="normal" text-decoration="normal" x="237" y="415" text-anchor="start" dominant-baseline="alphabetic" fill-opacity="1">–8</text><text fill="rgb(37,37,37)" stroke="none" font-family="geogebra-sans-serif, sans-serif" font-size="12px" font-style="normal" font-weight="normal" text-decoration="normal" x="287" y="415" text-anchor="start" dominant-baseline="alphabetic" fill-opacity="1">–7</text><text fill="none" stroke="rgb(255,255,255)" font-family="geogebra-sans-serif, sans-serif" font-size="12px" font-style="normal" font-weight="normal" text-decoration="normal" x="287" y="415" text-anchor="start" dominant-baseline="alphabetic" stroke-opacity="1" stroke-linejoin="bevel" stroke-miterlimit="10" stroke-width="3">–7</text><text fill="rgb(37,37,37)" stroke="none" font-family="geogebra-sans-serif, sans-serif" font-size="12px" font-style="normal" font-weight="normal" text-decoration="normal" x="287" y="415" text-anchor="start" dominant-baseline="alphabetic" fill-opacity="1">–7</text><text fill="rgb(37,37,37)" stroke="none" font-family="geogebra-sans-serif, sans-serif" font-size="12px" font-style="normal" font-weight="normal" text-decoration="normal" x="337" y="415" text-anchor="start" dominant-baseline="alphabetic" fill-opacity="1">–6</text><text fill="none" stroke="rgb(255,255,255)" font-family="geogebra-sans-serif, sans-serif" font-size="12px" font-style="normal" font-weight="normal" text-decoration="normal" x="337" y="415" text-anchor="start" dominant-baseline="alphabetic" stroke-opacity="1" stroke-linejoin="bevel" stroke-miterlimit="10" stroke-width="3">–6</text><text fill="rgb(37,37,37)" stroke="none" font-family="geogebra-sans-serif, sans-serif" font-size="12px" font-style="normal" font-weight="normal" text-decoration="normal" x="337" y="415" text-anchor="start" dominant-baseline="alphabetic" fill-opacity="1">–6</text><text fill="rgb(37,37,37)" stroke="none" font-family="geogebra-sans-serif, sans-serif" font-size="12px" font-style="normal" font-weight="normal" text-decoration="normal" x="387" y="415" text-anchor="start" dominant-baseline="alphabetic" fill-opacity="1">–5</text><text fill="none" stroke="rgb(255,255,255)" font-family="geogebra-sans-serif, sans-serif" font-size="12px" font-style="normal" font-weight="normal" text-decoration="normal" x="387" y="415" text-anchor="start" dominant-baseline="alphabetic" stroke-opacity="1" stroke-linejoin="bevel" stroke-miterlimit="10" stroke-width="3">–5</text><text fill="rgb(37,37,37)" stroke="none" font-family="geogebra-sans-serif, sans-serif" font-size="12px" font-style="normal" font-weight="normal" text-decoration="normal" x="387" y="415" text-anchor="start" dominant-baseline="alphabetic" fill-opacity="1">–5</text><text fill="rgb(37,37,37)" stroke="none" font-family="geogebra-sans-serif, sans-serif" font-size="12px" font-style="normal" font-weight="normal" text-decoration="normal" x="437" y="415" text-anchor="start" dominant-baseline="alphabetic" fill-opacity="1">–4</text><text fill="none" stroke="rgb(255,255,255)" font-family="geogebra-sans-serif, sans-serif" font-size="12px" font-style="normal" font-weight="normal" text-decoration="normal" x="437" y="415" text-anchor="start" dominant-baseline="alphabetic" stroke-opacity="1" stroke-linejoin="bevel" stroke-miterlimit="10" stroke-width="3">–4</text><text fill="rgb(37,37,37)" stroke="none" font-family="geogebra-sans-serif, sans-serif" font-size="12px" font-style="normal" font-weight="normal" text-decoration="normal" x="437" y="415" text-anchor="start" dominant-baseline="alphabetic" fill-opacity="1">–4</text><text fill="rgb(37,37,37)" stroke="none" font-family="geogebra-sans-serif, sans-serif" font-size="12px" font-style="normal" font-weight="normal" text-decoration="normal" x="487" y="415" text-anchor="start" dominant-baseline="alphabetic" fill-opacity="1">–3</text><text fill="none" stroke="rgb(255,255,255)" font-family="geogebra-sans-serif, sans-serif" font-size="12px" font-style="normal" font-weight="normal" text-decoration="normal" x="487" y="415" text-anchor="start" dominant-baseline="alphabetic" stroke-opacity="1" stroke-linejoin="bevel" stroke-miterlimit="10" stroke-width="3">–3</text><text fill="rgb(37,37,37)" stroke="none" font-family="geogebra-sans-serif, sans-serif" font-size="12px" font-style="normal" font-weight="normal" text-decoration="normal" x="487" y="415" text-anchor="start" dominant-baseline="alphabetic" fill-opacity="1">–3</text><text fill="rgb(37,37,37)" stroke="none" font-family="geogebra-sans-serif, sans-serif" font-size="12px" font-style="normal" font-weight="normal" text-decoration="normal" x="537" y="415" text-anchor="start" dominant-baseline="alphabetic" fill-opacity="1">–2</text><text fill="none" stroke="rgb(255,255,255)" font-family="geogebra-sans-serif, sans-serif" font-size="12px" font-style="normal" font-weight="normal" text-decoration="normal" x="537" y="415" text-anchor="start" dominant-baseline="alphabetic" stroke-opacity="1" stroke-linejoin="bevel" stroke-miterlimit="10" stroke-width="3">–2</text><text fill="rgb(37,37,37)" stroke="none" font-family="geogebra-sans-serif, sans-serif" font-size="12px" font-style="normal" font-weight="normal" text-decoration="normal" x="537" y="415" text-anchor="start" dominant-baseline="alphabetic" fill-opacity="1">–2</text><text fill="rgb(37,37,37)" stroke="none" font-family="geogebra-sans-serif, sans-serif" font-size="12px" font-style="normal" font-weight="normal" text-decoration="normal" x="587" y="415" text-anchor="start" dominant-baseline="alphabetic" fill-opacity="1">–1</text><text fill="none" stroke="rgb(255,255,255)" font-family="geogebra-sans-serif, sans-serif" font-size="12px" font-style="normal" font-weight="normal" text-decoration="normal" x="587" y="415" text-anchor="start" dominant-baseline="alphabetic" stroke-opacity="1" stroke-linejoin="bevel" stroke-miterlimit="10" stroke-width="3">–1</text><text fill="rgb(37,37,37)" stroke="none" font-family="geogebra-sans-serif, sans-serif" font-size="12px" font-style="normal" font-weight="normal" text-decoration="normal" x="587" y="415" text-anchor="start" dominant-baseline="alphabetic" fill-opacity="1">–1</text><text fill="rgb(37,37,37)" stroke="none" font-family="geogebra-sans-serif, sans-serif" font-size="12px" font-style="normal" font-weight="normal" text-decoration="normal" x="690" y="415" text-anchor="start" dominant-baseline="alphabetic" fill-opacity="1">1</text><text fill="none" stroke="rgb(255,255,255)" font-family="geogebra-sans-serif, sans-serif" font-size="12px" font-style="normal" font-weight="normal" text-decoration="normal" x="690" y="415" text-anchor="start" dominant-baseline="alphabetic" stroke-opacity="1" stroke-linejoin="bevel" stroke-miterlimit="10" stroke-width="3">1</text><text fill="rgb(37,37,37)" stroke="none" font-family="geogebra-sans-serif, sans-serif" font-size="12px" font-style="normal" font-weight="normal" text-decoration="normal" x="690" y="415" text-anchor="start" dominant-baseline="alphabetic" fill-opacity="1">1</text><text fill="rgb(37,37,37)" stroke="none" font-family="geogebra-sans-serif, sans-serif" font-size="12px" font-style="normal" font-weight="normal" text-decoration="normal" x="740" y="415" text-anchor="start" dominant-baseline="alphabetic" fill-opacity="1">2</text><text fill="none" stroke="rgb(255,255,255)" font-family="geogebra-sans-serif, sans-serif" font-size="12px" font-style="normal" font-weight="normal" text-decoration="normal" x="740" y="415" text-anchor="start" dominant-baseline="alphabetic" stroke-opacity="1" stroke-linejoin="bevel" stroke-miterlimit="10" stroke-width="3">2</text><text fill="rgb(37,37,37)" stroke="none" font-family="geogebra-sans-serif, sans-serif" font-size="12px" font-style="normal" font-weight="normal" text-decoration="normal" x="740" y="415" text-anchor="start" dominant-baseline="alphabetic" fill-opacity="1">2</text><text fill="rgb(37,37,37)" stroke="none" font-family="geogebra-sans-serif, sans-serif" font-size="12px" font-style="normal" font-weight="normal" text-decoration="normal" x="790" y="415" text-anchor="start" dominant-baseline="alphabetic" fill-opacity="1">3</text><text fill="none" stroke="rgb(255,255,255)" font-family="geogebra-sans-serif, sans-serif" font-size="12px" font-style="normal" font-weight="normal" text-decoration="normal" x="790" y="415" text-anchor="start" dominant-baseline="alphabetic" stroke-opacity="1" stroke-linejoin="bevel" stroke-miterlimit="10" stroke-width="3">3</text><text fill="rgb(37,37,37)" stroke="none" font-family="geogebra-sans-serif, sans-serif" font-size="12px" font-style="normal" font-weight="normal" text-decoration="normal" x="790" y="415" text-anchor="start" dominant-baseline="alphabetic" fill-opacity="1">3</text><text fill="rgb(37,37,37)" stroke="none" font-family="geogebra-sans-serif, sans-serif" font-size="12px" font-style="normal" font-weight="normal" text-decoration="normal" x="840" y="415" text-anchor="start" dominant-baseline="alphabetic" fill-opacity="1">4</text><text fill="none" stroke="rgb(255,255,255)" font-family="geogebra-sans-serif, sans-serif" font-size="12px" font-style="normal" font-weight="normal" text-decoration="normal" x="840" y="415" text-anchor="start" dominant-baseline="alphabetic" stroke-opacity="1" stroke-linejoin="bevel" stroke-miterlimit="10" stroke-width="3">4</text><text fill="rgb(37,37,37)" stroke="none" font-family="geogebra-sans-serif, sans-serif" font-size="12px" font-style="normal" font-weight="normal" text-decoration="normal" x="840" y="415" text-anchor="start" dominant-baseline="alphabetic" fill-opacity="1">4</text><text fill="rgb(37,37,37)" stroke="none" font-family="geogebra-sans-serif, sans-serif" font-size="12px" font-style="normal" font-weight="normal" text-decoration="normal" x="890" y="415" text-anchor="start" dominant-baseline="alphabetic" fill-opacity="1">5</text><text fill="none" stroke="rgb(255,255,255)" font-family="geogebra-sans-serif, sans-serif" font-size="12px" font-style="normal" font-weight="normal" text-decoration="normal" x="890" y="415" text-anchor="start" dominant-baseline="alphabetic" stroke-opacity="1" stroke-linejoin="bevel" stroke-miterlimit="10" stroke-width="3">5</text><text fill="rgb(37,37,37)" stroke="none" font-family="geogebra-sans-serif, sans-serif" font-size="12px" font-style="normal" font-weight="normal" text-decoration="normal" x="890" y="415" text-anchor="start" dominant-baseline="alphabetic" fill-opacity="1">5</text><text fill="rgb(37,37,37)" stroke="none" font-family="geogebra-sans-serif, sans-serif" font-size="12px" font-style="normal" font-weight="normal" text-decoration="normal" x="940" y="415" text-anchor="start" dominant-baseline="alphabetic" fill-opacity="1">6</text><text fill="none" stroke="rgb(255,255,255)" font-family="geogebra-sans-serif, sans-serif" font-size="12px" font-style="normal" font-weight="normal" text-decoration="normal" x="940" y="415" text-anchor="start" dominant-baseline="alphabetic" stroke-opacity="1" stroke-linejoin="bevel" stroke-miterlimit="10" stroke-width="3">6</text><text fill="rgb(37,37,37)" stroke="none" font-family="geogebra-sans-serif, sans-serif" font-size="12px" font-style="normal" font-weight="normal" text-decoration="normal" x="940" y="415" text-anchor="start" dominant-baseline="alphabetic" fill-opacity="1">6</text><text fill="rgb(37,37,37)" stroke="none" font-family="geogebra-sans-serif, sans-serif" font-size="12px" font-style="normal" font-weight="normal" text-decoration="normal" x="990" y="415" text-anchor="start" dominant-baseline="alphabetic" fill-opacity="1">7</text><text fill="none" stroke="rgb(255,255,255)" font-family="geogebra-sans-serif, sans-serif" font-size="12px" font-style="normal" font-weight="normal" text-decoration="normal" x="990" y="415" text-anchor="start" dominant-baseline="alphabetic" stroke-opacity="1" stroke-linejoin="bevel" stroke-miterlimit="10" stroke-width="3">7</text><text fill="rgb(37,37,37)" stroke="none" font-family="geogebra-sans-serif, sans-serif" font-size="12px" font-style="normal" font-weight="normal" text-decoration="normal" x="990" y="415" text-anchor="start" dominant-baseline="alphabetic" fill-opacity="1">7</text><text fill="rgb(37,37,37)" stroke="none" font-family="geogebra-sans-serif, sans-serif" font-size="12px" font-style="normal" font-weight="normal" text-decoration="normal" x="1040" y="415" text-anchor="start" dominant-baseline="alphabetic" fill-opacity="1">8</text><text fill="none" stroke="rgb(255,255,255)" font-family="geogebra-sans-serif, sans-serif" font-size="12px" font-style="normal" font-weight="normal" text-decoration="normal" x="1040" y="415" text-anchor="start" dominant-baseline="alphabetic" stroke-opacity="1" stroke-linejoin="bevel" stroke-miterlimit="10" stroke-width="3">8</text><text fill="rgb(37,37,37)" stroke="none" font-family="geogebra-sans-serif, sans-serif" font-size="12px" font-style="normal" font-weight="normal" text-decoration="normal" x="1040" y="415" text-anchor="start" dominant-baseline="alphabetic" fill-opacity="1">8</text><text fill="rgb(37,37,37)" stroke="none" font-family="geogebra-sans-serif, sans-serif" font-size="12px" font-style="normal" font-weight="normal" text-decoration="normal" x="1090" y="415" text-anchor="start" dominant-baseline="alphabetic" fill-opacity="1">9</text><text fill="none" stroke="rgb(255,255,255)" font-family="geogebra-sans-serif, sans-serif" font-size="12px" font-style="normal" font-weight="normal" text-decoration="normal" x="1090" y="415" text-anchor="start" dominant-baseline="alphabetic" stroke-opacity="1" stroke-linejoin="bevel" stroke-miterlimit="10" stroke-width="3">9</text><text fill="rgb(37,37,37)" stroke="none" font-family="geogebra-sans-serif, sans-serif" font-size="12px" font-style="normal" font-weight="normal" text-decoration="normal" x="1090" y="415" text-anchor="start" dominant-baseline="alphabetic" fill-opacity="1">9</text><text fill="rgb(37,37,37)" stroke="none" font-family="geogebra-sans-serif, sans-serif" font-size="12px" font-style="normal" font-weight="normal" text-decoration="normal" x="1137" y="415" text-anchor="start" dominant-baseline="alphabetic" fill-opacity="1">10</text><text fill="none" stroke="rgb(255,255,255)" font-family="geogebra-sans-serif, sans-serif" font-size="12px" font-style="normal" font-weight="normal" text-decoration="normal" x="1137" y="415" text-anchor="start" dominant-baseline="alphabetic" stroke-opacity="1" stroke-linejoin="bevel" stroke-miterlimit="10" stroke-width="3">10</text><text fill="rgb(37,37,37)" stroke="none" font-family="geogebra-sans-serif, sans-serif" font-size="12px" font-style="normal" font-weight="normal" text-decoration="normal" x="1137" y="415" text-anchor="start" dominant-baseline="alphabetic" fill-opacity="1">10</text><text fill="rgb(37,37,37)" stroke="none" font-family="geogebra-sans-serif, sans-serif" font-size="12px" font-style="normal" font-weight="normal" text-decoration="normal" x="1187" y="415" text-anchor="start" dominant-baseline="alphabetic" fill-opacity="1">11</text><text fill="none" stroke="rgb(255,255,255)" font-family="geogebra-sans-serif, sans-serif" font-size="12px" font-style="normal" font-weight="normal" text-decoration="normal" x="1187" y="415" text-anchor="start" dominant-baseline="alphabetic" stroke-opacity="1" stroke-linejoin="bevel" stroke-miterlimit="10" stroke-width="3">11</text><text fill="rgb(37,37,37)" stroke="none" font-family="geogebra-sans-serif, sans-serif" font-size="12px" font-style="normal" font-weight="normal" text-decoration="normal" x="1187" y="415" text-anchor="start" dominant-baseline="alphabetic" fill-opacity="1">11</text><text fill="rgb(37,37,37)" stroke="none" font-family="geogebra-sans-serif, sans-serif" font-size="12px" font-style="normal" font-weight="normal" text-decoration="normal" x="1237" y="415" text-anchor="start" dominant-baseline="alphabetic" fill-opacity="1">12</text><text fill="none" stroke="rgb(255,255,255)" font-family="geogebra-sans-serif, sans-serif" font-size="12px" font-style="normal" font-weight="normal" text-decoration="normal" x="1237" y="415" text-anchor="start" dominant-baseline="alphabetic" stroke-opacity="1" stroke-linejoin="bevel" stroke-miterlimit="10" stroke-width="3">12</text><text fill="rgb(37,37,37)" stroke="none" font-family="geogebra-sans-serif, sans-serif" font-size="12px" font-style="normal" font-weight="normal" text-decoration="normal" x="1237" y="415" text-anchor="start" dominant-baseline="alphabetic" fill-opacity="1">12</text><text fill="rgb(37,37,37)" stroke="none" font-family="geogebra-sans-serif, sans-serif" font-size="12px" font-style="normal" font-weight="normal" text-decoration="normal" x="621" y="754" text-anchor="start" dominant-baseline="alphabetic" fill-opacity="1">–7</text><text fill="none" stroke="rgb(255,255,255)" font-family="geogebra-sans-serif, sans-serif" font-size="12px" font-style="normal" font-weight="normal" text-decoration="normal" x="621" y="754" text-anchor="start" dominant-baseline="alphabetic" stroke-opacity="1" stroke-linejoin="bevel" stroke-miterlimit="10" stroke-width="3">–7</text><text fill="rgb(37,37,37)" stroke="none" font-family="geogebra-sans-serif, sans-serif" font-size="12px" font-style="normal" font-weight="normal" text-decoration="normal" x="621" y="754" text-anchor="start" dominant-baseline="alphabetic" fill-opacity="1">–7</text><text fill="rgb(37,37,37)" stroke="none" font-family="geogebra-sans-serif, sans-serif" font-size="12px" font-style="normal" font-weight="normal" text-decoration="normal" x="621" y="704" text-anchor="start" dominant-baseline="alphabetic" fill-opacity="1">–6</text><text fill="none" stroke="rgb(255,255,255)" font-family="geogebra-sans-serif, sans-serif" font-size="12px" font-style="normal" font-weight="normal" text-decoration="normal" x="621" y="704" text-anchor="start" dominant-baseline="alphabetic" stroke-opacity="1" stroke-linejoin="bevel" stroke-miterlimit="10" stroke-width="3">–6</text><text fill="rgb(37,37,37)" stroke="none" font-family="geogebra-sans-serif, sans-serif" font-size="12px" font-style="normal" font-weight="normal" text-decoration="normal" x="621" y="704" text-anchor="start" dominant-baseline="alphabetic" fill-opacity="1">–6</text><text fill="rgb(37,37,37)" stroke="none" font-family="geogebra-sans-serif, sans-serif" font-size="12px" font-style="normal" font-weight="normal" text-decoration="normal" x="621" y="654" text-anchor="start" dominant-baseline="alphabetic" fill-opacity="1">–5</text><text fill="none" stroke="rgb(255,255,255)" font-family="geogebra-sans-serif, sans-serif" font-size="12px" font-style="normal" font-weight="normal" text-decoration="normal" x="621" y="654" text-anchor="start" dominant-baseline="alphabetic" stroke-opacity="1" stroke-linejoin="bevel" stroke-miterlimit="10" stroke-width="3">–5</text><text fill="rgb(37,37,37)" stroke="none" font-family="geogebra-sans-serif, sans-serif" font-size="12px" font-style="normal" font-weight="normal" text-decoration="normal" x="621" y="654" text-anchor="start" dominant-baseline="alphabetic" fill-opacity="1">–5</text><text fill="rgb(37,37,37)" stroke="none" font-family="geogebra-sans-serif, sans-serif" font-size="12px" font-style="normal" font-weight="normal" text-decoration="normal" x="621" y="604" text-anchor="start" dominant-baseline="alphabetic" fill-opacity="1">–4</text><text fill="none" stroke="rgb(255,255,255)" font-family="geogebra-sans-serif, sans-serif" font-size="12px" font-style="normal" font-weight="normal" text-decoration="normal" x="621" y="604" text-anchor="start" dominant-baseline="alphabetic" stroke-opacity="1" stroke-linejoin="bevel" stroke-miterlimit="10" stroke-width="3">–4</text><text fill="rgb(37,37,37)" stroke="none" font-family="geogebra-sans-serif, sans-serif" font-size="12px" font-style="normal" font-weight="normal" text-decoration="normal" x="621" y="604" text-anchor="start" dominant-baseline="alphabetic" fill-opacity="1">–4</text><text fill="rgb(37,37,37)" stroke="none" font-family="geogebra-sans-serif, sans-serif" font-size="12px" font-style="normal" font-weight="normal" text-decoration="normal" x="621" y="554" text-anchor="start" dominant-baseline="alphabetic" fill-opacity="1">–3</text><text fill="none" stroke="rgb(255,255,255)" font-family="geogebra-sans-serif, sans-serif" font-size="12px" font-style="normal" font-weight="normal" text-decoration="normal" x="621" y="554" text-anchor="start" dominant-baseline="alphabetic" stroke-opacity="1" stroke-linejoin="bevel" stroke-miterlimit="10" stroke-width="3">–3</text><text fill="rgb(37,37,37)" stroke="none" font-family="geogebra-sans-serif, sans-serif" font-size="12px" font-style="normal" font-weight="normal" text-decoration="normal" x="621" y="554" text-anchor="start" dominant-baseline="alphabetic" fill-opacity="1">–3</text><text fill="rgb(37,37,37)" stroke="none" font-family="geogebra-sans-serif, sans-serif" font-size="12px" font-style="normal" font-weight="normal" text-decoration="normal" x="621" y="504" text-anchor="start" dominant-baseline="alphabetic" fill-opacity="1">–2</text><text fill="none" stroke="rgb(255,255,255)" font-family="geogebra-sans-serif, sans-serif" font-size="12px" font-style="normal" font-weight="normal" text-decoration="normal" x="621" y="504" text-anchor="start" dominant-baseline="alphabetic" stroke-opacity="1" stroke-linejoin="bevel" stroke-miterlimit="10" stroke-width="3">–2</text><text fill="rgb(37,37,37)" stroke="none" font-family="geogebra-sans-serif, sans-serif" font-size="12px" font-style="normal" font-weight="normal" text-decoration="normal" x="621" y="504" text-anchor="start" dominant-baseline="alphabetic" fill-opacity="1">–2</text><text fill="rgb(37,37,37)" stroke="none" font-family="geogebra-sans-serif, sans-serif" font-size="12px" font-style="normal" font-weight="normal" text-decoration="normal" x="621" y="454" text-anchor="start" dominant-baseline="alphabetic" fill-opacity="1">–1</text><text fill="none" stroke="rgb(255,255,255)" font-family="geogebra-sans-serif, sans-serif" font-size="12px" font-style="normal" font-weight="normal" text-decoration="normal" x="621" y="454" text-anchor="start" dominant-baseline="alphabetic" stroke-opacity="1" stroke-linejoin="bevel" stroke-miterlimit="10" stroke-width="3">–1</text><text fill="rgb(37,37,37)" stroke="none" font-family="geogebra-sans-serif, sans-serif" font-size="12px" font-style="normal" font-weight="normal" text-decoration="normal" x="621" y="454" text-anchor="start" dominant-baseline="alphabetic" fill-opacity="1">–1</text><text fill="rgb(37,37,37)" stroke="none" font-family="geogebra-sans-serif, sans-serif" font-size="12px" font-style="normal" font-weight="normal" text-decoration="normal" x="627" y="354" text-anchor="start" dominant-baseline="alphabetic" fill-opacity="1">1</text><text fill="none" stroke="rgb(255,255,255)" font-family="geogebra-sans-serif, sans-serif" font-size="12px" font-style="normal" font-weight="normal" text-decoration="normal" x="627" y="354" text-anchor="start" dominant-baseline="alphabetic" stroke-opacity="1" stroke-linejoin="bevel" stroke-miterlimit="10" stroke-width="3">1</text><text fill="rgb(37,37,37)" stroke="none" font-family="geogebra-sans-serif, sans-serif" font-size="12px" font-style="normal" font-weight="normal" text-decoration="normal" x="627" y="354" text-anchor="start" dominant-baseline="alphabetic" fill-opacity="1">1</text><text fill="rgb(37,37,37)" stroke="none" font-family="geogebra-sans-serif, sans-serif" font-size="12px" font-style="normal" font-weight="normal" text-decoration="normal" x="627" y="304" text-anchor="start" dominant-baseline="alphabetic" fill-opacity="1">2</text><text fill="none" stroke="rgb(255,255,255)" font-family="geogebra-sans-serif, sans-serif" font-size="12px" font-style="normal" font-weight="normal" text-decoration="normal" x="627" y="304" text-anchor="start" dominant-baseline="alphabetic" stroke-opacity="1" stroke-linejoin="bevel" stroke-miterlimit="10" stroke-width="3">2</text><text fill="rgb(37,37,37)" stroke="none" font-family="geogebra-sans-serif, sans-serif" font-size="12px" font-style="normal" font-weight="normal" text-decoration="normal" x="627" y="304" text-anchor="start" dominant-baseline="alphabetic" fill-opacity="1">2</text><text fill="rgb(37,37,37)" stroke="none" font-family="geogebra-sans-serif, sans-serif" font-size="12px" font-style="normal" font-weight="normal" text-decoration="normal" x="627" y="254" text-anchor="start" dominant-baseline="alphabetic" fill-opacity="1">3</text><text fill="none" stroke="rgb(255,255,255)" font-family="geogebra-sans-serif, sans-serif" font-size="12px" font-style="normal" font-weight="normal" text-decoration="normal" x="627" y="254" text-anchor="start" dominant-baseline="alphabetic" stroke-opacity="1" stroke-linejoin="bevel" stroke-miterlimit="10" stroke-width="3">3</text><text fill="rgb(37,37,37)" stroke="none" font-family="geogebra-sans-serif, sans-serif" font-size="12px" font-style="normal" font-weight="normal" text-decoration="normal" x="627" y="254" text-anchor="start" dominant-baseline="alphabetic" fill-opacity="1">3</text><text fill="rgb(37,37,37)" stroke="none" font-family="geogebra-sans-serif, sans-serif" font-size="12px" font-style="normal" font-weight="normal" text-decoration="normal" x="627" y="204" text-anchor="start" dominant-baseline="alphabetic" fill-opacity="1">4</text><text fill="none" stroke="rgb(255,255,255)" font-family="geogebra-sans-serif, sans-serif" font-size="12px" font-style="normal" font-weight="normal" text-decoration="normal" x="627" y="204" text-anchor="start" dominant-baseline="alphabetic" stroke-opacity="1" stroke-linejoin="bevel" stroke-miterlimit="10" stroke-width="3">4</text><text fill="rgb(37,37,37)" stroke="none" font-family="geogebra-sans-serif, sans-serif" font-size="12px" font-style="normal" font-weight="normal" text-decoration="normal" x="627" y="204" text-anchor="start" dominant-baseline="alphabetic" fill-opacity="1">4</text><text fill="rgb(37,37,37)" stroke="none" font-family="geogebra-sans-serif, sans-serif" font-size="12px" font-style="normal" font-weight="normal" text-decoration="normal" x="627" y="154" text-anchor="start" dominant-baseline="alphabetic" fill-opacity="1">5</text><text fill="none" stroke="rgb(255,255,255)" font-family="geogebra-sans-serif, sans-serif" font-size="12px" font-style="normal" font-weight="normal" text-decoration="normal" x="627" y="154" text-anchor="start" dominant-baseline="alphabetic" stroke-opacity="1" stroke-linejoin="bevel" stroke-miterlimit="10" stroke-width="3">5</text><text fill="rgb(37,37,37)" stroke="none" font-family="geogebra-sans-serif, sans-serif" font-size="12px" font-style="normal" font-weight="normal" text-decoration="normal" x="627" y="154" text-anchor="start" dominant-baseline="alphabetic" fill-opacity="1">5</text><text fill="rgb(37,37,37)" stroke="none" font-family="geogebra-sans-serif, sans-serif" font-size="12px" font-style="normal" font-weight="normal" text-decoration="normal" x="627" y="104" text-anchor="start" dominant-baseline="alphabetic" fill-opacity="1">6</text><text fill="none" stroke="rgb(255,255,255)" font-family="geogebra-sans-serif, sans-serif" font-size="12px" font-style="normal" font-weight="normal" text-decoration="normal" x="627" y="104" text-anchor="start" dominant-baseline="alphabetic" stroke-opacity="1" stroke-linejoin="bevel" stroke-miterlimit="10" stroke-width="3">6</text><text fill="rgb(37,37,37)" stroke="none" font-family="geogebra-sans-serif, sans-serif" font-size="12px" font-style="normal" font-weight="normal" text-decoration="normal" x="627" y="104" text-anchor="start" dominant-baseline="alphabetic" fill-opacity="1">6</text><text fill="rgb(37,37,37)" stroke="none" font-family="geogebra-sans-serif, sans-serif" font-size="12px" font-style="normal" font-weight="normal" text-decoration="normal" x="627" y="54" text-anchor="start" dominant-baseline="alphabetic" fill-opacity="1">7</text><text fill="none" stroke="rgb(255,255,255)" font-family="geogebra-sans-serif, sans-serif" font-size="12px" font-style="normal" font-weight="normal" text-decoration="normal" x="627" y="54" text-anchor="start" dominant-baseline="alphabetic" stroke-opacity="1" stroke-linejoin="bevel" stroke-miterlimit="10" stroke-width="3">7</text><text fill="rgb(37,37,37)" stroke="none" font-family="geogebra-sans-serif, sans-serif" font-size="12px" font-style="normal" font-weight="normal" text-decoration="normal" x="627" y="54" text-anchor="start" dominant-baseline="alphabetic" fill-opacity="1">7</text><text fill="rgb(37,37,37)" stroke="none" font-family="geogebra-sans-serif, sans-serif" font-size="12px" font-style="normal" font-weight="normal" text-decoration="normal" x="627" y="415" text-anchor="start" dominant-baseline="alphabetic" fill-opacity="1">0</text><text fill="none" stroke="rgb(255,255,255)" font-family="geogebra-sans-serif, sans-serif" font-size="12px" font-style="normal" font-weight="normal" text-decoration="normal" x="627" y="415" text-anchor="start" dominant-baseline="alphabetic" stroke-opacity="1" stroke-linejoin="bevel" stroke-miterlimit="10" stroke-width="3">0</text><text fill="rgb(37,37,37)" stroke="none" font-family="geogebra-sans-serif, sans-serif" font-size="12px" font-style="normal" font-weight="normal" text-decoration="normal" x="627" y="415" text-anchor="start" dominant-baseline="alphabetic" fill-opacity="1">0</text><path fill="none" stroke="rgb(211,47,47)" paint-order="fill stroke markers" d=" M 230.71874999999994 804.7912147656481 L 235.734375 799.7038320693855 L 240.75 794.6147375311795 L 245.765625 789.5238702709946 L 250.78125 784.4311665478097 L 255.796875 779.336559593791 L 260.8125 774.2399794371653 L 265.828125 769.1413527129199 L 270.84375 764.0406024603909 L 275.859375 758.937647906715 L 280.875 753.8324042350403 L 285.890625 748.7247823362954 L 290.90625 743.6146885432231 L 295.921875 738.5020243452649 L 300.9375 733.3866860827817 L 305.953125 728.2685646189601 L 310.96875 723.1475449876248 L 315.984375 718.0235060150347 L 321 712.8963199135892 L 326.015625 707.7658518452105 L 331.03125 702.6319594520006 L 336.046875 697.4944923515982 L 341.0625 692.3532915944811 L 346.078125 687.2081890802817 L 351.09375 682.0590069300022 L 356.109375 676.9055568108504 L 361.125 671.7476392102615 L 366.140625 666.5850426555454 L 371.15625 661.4175428755111 L 376.171875 656.2449019003977 L 381.1875 651.0668670964928 L 386.203125 645.8831701320044 L 391.21875 640.6935258710819 L 396.234375 635.4976311934455 L 401.25 630.2951637379333 L 406.265625 625.0857805695247 L 411.28125 619.8691167711738 L 416.296875 614.6447839642606 L 421.3125 609.4123687648682 L 426.32812500000006 604.1714311877207 L 431.34375 598.921503015865 L 436.359375 593.6620861625688 L 441.375 588.3926510631305 L 446.390625 583.112635149272 L 451.40625 577.821441478712 L 456.421875 572.5184376190476 L 461.4375 567.2029549203179 L 466.453125 561.8742883575062 L 471.46875 556.5316971866026 L 476.484375 551.1744067408655 L 481.49999999999994 545.8016118045671 L 486.515625 540.4124821491378 L 491.53125 535.0061710138395 L 496.546875 529.5818275769022 L 501.5625 524.1386148163068 L 506.578125 518.6757346328181 L 511.59375 513.192462742621 L 516.609375 507.68819669771864 L 521.625 502.16252153132973 L 526.640625 496.615299046586 L 531.65625 491.04678878882874 L 536.671875 485.4578114100038 L 541.6875 479.8499686142057 L 546.703125 474.2259383328474 L 551.71875 468.5898693318537 L 556.734375 462.94790605461026 L 561.75 457.3088817192276 L 566.765625 451.68522427174844 L 571.78125 446.09412292964186 L 576.796875 440.55899705347946 L 581.8125 435.1112834230485 L 586.828125 429.7924945923977 L 591.84375 424.65637168943897 L 596.859375 419.77072202135247 L 601.875 415.2181584809973 L 606.890625 411.0944434566934 L 611.90625 407.50259761549466 L 616.921875 404.5407109031954 L 621.9375 402.2821614991636 L 626.953125 400.7495338357562 L 631.96875 399.8881389851865 L 636.984375 399.54996741438276 L 642 399.5 L 647.015625 399.45003258561724 L 652.03125 399.1118610148135 L 657.046875 398.2504661642438 L 662.0625 396.7178385008364 L 667.078125 394.4592890968046 L 672.09375 391.49740238450534 L 677.109375 387.9055565433066 L 682.125 383.7818415190027 L 687.140625 379.22927797864753 L 692.15625 374.34362831056103 L 697.171875 369.2075054076023 L 702.1875 363.8887165769515 L 707.203125 358.44100294652054 L 712.21875 352.90587707035814 L 717.234375 347.31477572825156 L 722.25 341.6911182807724 L 727.265625 336.05209394538974 L 732.28125 330.4101306681463 L 737.296875 324.7740616671526 L 742.3125 319.1500313857943 L 747.328125 313.5421885899962 L 752.34375 307.95321121117126 L 757.359375 302.384700953414 L 762.375 296.83747846867027 L 767.390625 291.31180330228136 L 772.40625 285.80753725737895 L 777.421875 280.32426536718185 L 782.4375 274.86138518369324 L 787.453125 269.4181724230977 L 792.46875 263.99382898616045 L 797.484375 258.58751785086224 L 802.5 253.19838819543295 L 807.5156249999999 247.82559325913462 L 812.53125 242.46830281339734 L 817.546875 237.12571164249383 L 822.5624999999999 231.79704507968225 L 827.578125 226.48156238095237 L 832.59375 221.178558521288 L 837.6093750000001 215.8873648507279 L 842.625 210.60734893686944 L 847.640625 205.33791383743122 L 852.6562500000001 200.0784969841348 L 857.671875 194.82856881227931 L 862.6875 189.58763123513182 L 867.703125 184.35521603573937 L 872.71875 179.13088322882638 L 877.734375 173.91421943047533 L 882.75 168.7048362620666 L 887.765625 163.50236880655459 L 892.78125 158.30647412891818 L 897.796875 153.11682986799562 L 902.8125 147.93313290350727 L 907.828125 142.75509809960226 L 912.84375 137.5824571244887 L 917.859375 132.41495734445465 L 922.875 127.25236078973847 L 927.890625 122.09444318914956 L 932.90625 116.94099306999783 L 937.921875 111.79181091971827 L 942.9375 106.64670840551884 L 947.9531249999999 101.50550764840199 L 952.96875 96.36804054799944 L 957.984375 91.23414815478947 L 962.9999999999999 86.10368008641086 L 968.015625 80.97649398496526 L 973.03125 75.85245501237512 L 978.046875 70.73143538103977 L 983.0625 65.61331391721836 L 988.078125 60.497975654735114 L 993.09375 55.385311456776776 L 998.109375 50.27521766370461 L 1003.125 45.1675957649598 L 1008.140625 40.06235209328486 L 1013.15625 34.95939753960914 L 1018.171875 29.85864728708009 L 1023.1875 24.760020562834654 L 1028.203125 19.66344040620902 L 1033.21875 14.568833452190347 L 1038.234375 9.476129729005436 L 1043.25 4.385262468820599 L 1048.265625 -0.7038320693855553 L 1053.28125 -5.791214765648078" stroke-opacity="0.8" stroke-linecap="round" stroke-linejoin="round" stroke-miterlimit="10" stroke-width="2.5"/><text fill="rgb(211,47,47)" stroke="none" font-family="geogebra-sans-serif, sans-serif" font-size="16px" font-style="normal" font-weight="normal" text-decoration="normal" x="277" y="723" text-anchor="start" dominant-baseline="alphabetic" fill-opacity="1">a=0</text><text fill="none" stroke="rgb(255,255,255)" font-family="geogebra-sans-serif, sans-serif" font-size="16px" font-style="normal" font-weight="normal" text-decoration="normal" x="277" y="723" text-anchor="start" dominant-baseline="alphabetic" stroke-opacity="1" stroke-linejoin="bevel" stroke-miterlimit="10" stroke-width="3">a=0</text><text fill="rgb(211,47,47)" stroke="none" font-family="geogebra-sans-serif, sans-serif" font-size="16px" font-style="normal" font-weight="normal" text-decoration="normal" x="277" y="723" text-anchor="start" dominant-baseline="alphabetic" fill-opacity="1">a=0</text><path fill="none" stroke="rgb(199,80,0)" paint-order="fill stroke markers" d=" M 235.734375 805.7656250000015 L 240.75 800.7500000000015 L 245.765625 795.7343750000015 L 250.78125 790.7187500000014 L 255.796875 785.7031250000014 L 260.8125 780.6875000000014 L 265.828125 775.6718750000014 L 270.84375 770.6562500000014 L 275.859375 765.6406250000014 L 280.875 760.6250000000014 L 285.890625 755.6093750000014 L 290.90625 750.5937500000014 L 295.921875 745.5781250000014 L 300.9375 740.5625000000013 L 305.953125 735.5468750000013 L 310.96875 730.5312500000011 L 315.984375 725.5156250000011 L 321 720.5000000000011 L 326.015625 715.4843750000011 L 331.03125 710.4687500000011 L 336.046875 705.4531250000011 L 341.0625 700.4375000000011 L 346.078125 695.4218750000011 L 351.09375 690.4062500000011 L 356.109375 685.3906250000011 L 361.125 680.375000000001 L 366.140625 675.359375000001 L 371.15625 670.343750000001 L 376.171875 665.3281250000009 L 381.1875 660.3125000000009 L 386.203125 655.2968750000009 L 391.21875 650.2812500000009 L 396.234375 645.2656250000009 L 401.25 640.2500000000009 L 406.265625 635.2343750000009 L 411.28125 630.2187500000009 L 416.296875 625.2031250000008 L 421.3125 620.1875000000008 L 426.32812500000006 615.1718750000008 L 431.34375 610.1562500000008 L 436.359375 605.1406250000008 L 441.375 600.1250000000007 L 446.390625 595.1093750000007 L 451.40625 590.0937500000007 L 456.421875 585.0781250000007 L 461.4375 580.0625000000007 L 466.453125 575.0468750000007 L 471.46875 570.0312500000006 L 476.484375 565.0156250000007 L 481.49999999999994 560.0000000000007 L 486.515625 554.9843750000006 L 491.53125 549.9687500000006 L 496.546875 544.9531250000005 L 501.5625 539.9375000000005 L 506.578125 534.9218750000005 L 511.59375 529.9062500000005 L 516.609375 524.8906250000005 L 521.625 519.8750000000005 L 526.640625 514.8593750000005 L 531.65625 509.8437500000004 L 536.671875 504.82812500000045 L 541.6875 499.81250000000034 L 546.703125 494.79687500000034 L 551.71875 489.7812500000003 L 556.734375 484.7656250000003 L 561.75 479.75000000000034 L 566.765625 474.7343750000002 L 571.78125 469.7187500000002 L 576.796875 464.7031250000003 L 581.8125 459.68750000000017 L 586.828125 454.6718750000002 L 591.84375 449.6562500000002 L 596.859375 444.6406250000001 L 601.875 439.62500000000017 L 606.890625 434.60937500000017 L 611.90625 429.5937500000001 L 616.921875 424.5781250000001 L 621.9375 419.56250000000006 L 626.953125 414.54687500000006 L 631.96875 409.53125000000006 L 636.984375 404.515625 L 642 399.5 L 647.015625 394.484375 L 652.03125 389.46874999999994 L 657.046875 384.45312499999994 L 662.0625 379.43749999999994 L 667.078125 374.4218749999999 L 672.09375 369.4062499999999 L 677.109375 364.39062499999983 L 682.125 359.37499999999983 L 687.140625 354.3593749999999 L 692.15625 349.3437499999998 L 697.171875 344.3281249999998 L 702.1875 339.31249999999983 L 707.203125 334.2968749999997 L 712.21875 329.2812499999998 L 717.234375 324.2656249999998 L 722.25 319.24999999999966 L 727.265625 314.2343749999997 L 732.28125 309.2187499999997 L 737.296875 304.20312499999966 L 742.3125 299.18749999999966 L 747.328125 294.17187499999955 L 752.34375 289.1562499999996 L 757.359375 284.1406249999996 L 762.375 279.12499999999955 L 767.390625 274.10937499999955 L 772.40625 269.09374999999955 L 777.421875 264.0781249999995 L 782.4375 259.0624999999995 L 787.453125 254.0468749999995 L 792.46875 249.03124999999943 L 797.484375 244.01562499999943 L 802.5 238.99999999999937 L 807.5156249999999 233.98437499999946 L 812.53125 228.9687499999994 L 817.546875 223.95312499999932 L 822.5624999999999 218.93749999999943 L 827.578125 213.92187499999935 L 832.59375 208.90624999999926 L 837.6093750000001 203.8906249999992 L 842.625 198.8749999999993 L 847.640625 193.85937499999923 L 852.6562500000001 188.84374999999915 L 857.671875 183.82812499999923 L 862.6875 178.81249999999918 L 867.703125 173.7968749999991 L 872.71875 168.7812499999992 L 877.734375 163.76562499999912 L 882.75 158.74999999999903 L 887.765625 153.73437499999915 L 892.78125 148.71874999999906 L 897.796875 143.703124999999 L 902.8125 138.6874999999991 L 907.828125 133.67187499999903 L 912.84375 128.65624999999898 L 917.859375 123.64062499999903 L 922.875 118.62499999999898 L 927.890625 113.60937499999892 L 932.90625 108.59374999999898 L 937.921875 103.57812499999892 L 942.9375 98.56249999999886 L 947.9531249999999 93.54687499999898 L 952.96875 88.53124999999886 L 957.984375 83.5156249999988 L 962.9999999999999 78.49999999999892 L 968.015625 73.4843749999988 L 973.03125 68.46874999999875 L 978.046875 63.45312499999869 L 983.0625 58.437499999998806 L 988.078125 53.42187499999869 L 993.09375 48.406249999998636 L 998.109375 43.39062499999875 L 1003.125 38.374999999998636 L 1008.140625 33.35937499999858 L 1013.15625 28.343749999998693 L 1018.171875 23.328124999998636 L 1023.1875 18.312499999998522 L 1028.203125 13.296874999998636 L 1033.21875 8.281249999998579 L 1038.234375 3.2656249999984652 L 1043.25 -1.750000000001421 L 1048.265625 -6.765625000001478" stroke-opacity="0.8" stroke-linecap="round" stroke-linejoin="round" stroke-miterlimit="10" stroke-width="2.5"/><text fill="rgb(199,80,0)" stroke="none" font-family="geogebra-sans-serif, sans-serif" font-size="16px" font-style="normal" font-weight="normal" text-decoration="normal" x="303" y="739" text-anchor="start" dominant-baseline="alphabetic" fill-opacity="1">a=1</text><text fill="none" stroke="rgb(255,255,255)" font-family="geogebra-sans-serif, sans-serif" font-size="16px" font-style="normal" font-weight="normal" text-decoration="normal" x="303" y="739" text-anchor="start" dominant-baseline="alphabetic" stroke-opacity="1" stroke-linejoin="bevel" stroke-miterlimit="10" stroke-width="3">a=1</text><text fill="rgb(199,80,0)" stroke="none" font-family="geogebra-sans-serif, sans-serif" font-size="16px" font-style="normal" font-weight="normal" text-decoration="normal" x="303" y="739" text-anchor="start" dominant-baseline="alphabetic" fill-opacity="1">a=1</text><path fill="none" stroke="rgb(101,87,210)" paint-order="fill stroke markers" d=" M 240.75 806.8852624688235 L 245.765625 801.9448797290086 L 250.78125 797.0063334521933 L 255.796875 792.0696904062117 L 260.8125 787.1350205628376 L 265.828125 782.2023972870829 L 270.84375 777.2718975396118 L 275.859375 772.3436020932877 L 280.875 767.4175957649625 L 285.890625 762.4939676637072 L 290.90625 757.5728114567794 L 295.921875 752.6542256547377 L 300.9375 747.7383139172209 L 305.953125 742.8251853810423 L 310.96875 737.9149550123775 L 315.984375 733.0077439849676 L 321 728.1036800864131 L 326.015625 723.2028981547918 L 331.03125 718.3055405480018 L 336.046875 713.4117576484041 L 341.0625 708.5217084055212 L 346.078125 703.6355609197204 L 351.09375 698.7534930699999 L 356.109375 693.8756931891518 L 361.125 689.0023607897406 L 366.140625 684.1337073444568 L 371.15625 679.2699571244908 L 376.171875 674.4113480996043 L 381.1875 669.5581329035092 L 386.203125 664.7105798679976 L 391.21875 659.86897412892 L 396.234375 655.0336188065563 L 401.25 650.2048362620684 L 406.265625 645.382969430477 L 411.28125 640.568383228828 L 416.296875 635.7614660357411 L 421.3125 630.9626312351335 L 426.32812500000006 626.1723188122808 L 431.34375 621.3909969841365 L 436.359375 616.6191638374328 L 441.375 611.8573489368708 L 446.390625 607.1061148507295 L 451.40625 602.3660585212895 L 456.421875 597.6378123809536 L 461.4375 592.9220450796835 L 466.453125 588.2194616424952 L 471.46875 583.5308028133986 L 476.484375 578.8568432591358 L 481.49999999999994 574.1983881954342 L 486.515625 569.5562678508634 L 491.53125 564.9313289861616 L 496.546875 560.3244224230987 L 501.5625 555.7363851836942 L 506.578125 551.1680153671829 L 511.59375 546.6200372573799 L 516.609375 542.0930533022822 L 521.625 537.5874784686712 L 526.640625 533.1034509534147 L 531.65625 528.6407112111722 L 536.671875 524.1984385899971 L 541.6875 519.775031385795 L 546.703125 515.3678116671533 L 551.71875 510.97263066814685 L 556.734375 506.5833439453903 L 561.75 502.191118280773 L 566.765625 497.7835257282521 L 571.78125 493.34337707035866 L 576.796875 488.8472529465211 L 581.8125 484.2637165769519 L 586.828125 479.55125540760275 L 591.84375 474.6561283105615 L 596.859375 469.5105279786478 L 601.875 464.031841519003 L 606.890625 458.124306543307 L 611.90625 451.6849023845055 L 616.921875 444.61553909680475 L 621.9375 436.8428385008365 L 626.953125 428.3442161642439 L 631.96875 419.17436101481366 L 636.984375 409.4812825856172 L 642 399.5 L 647.015625 389.5187174143828 L 652.03125 379.82563898518634 L 657.046875 370.6557838357561 L 662.0625 362.1571614991635 L 667.078125 354.38446090319525 L 672.09375 347.3150976154945 L 677.109375 340.875693456693 L 682.125 334.968158480997 L 687.140625 329.4894720213522 L 692.15625 324.3438716894385 L 697.171875 319.44874459239725 L 702.1875 314.7362834230481 L 707.203125 310.1527470534789 L 712.21875 305.65662292964134 L 717.234375 301.2164742717479 L 722.25 296.808881719227 L 727.265625 292.4166560546097 L 732.28125 288.02736933185315 L 737.296875 283.63218833284674 L 742.3125 279.224968614205 L 747.328125 274.80156141000293 L 752.34375 270.3592887888279 L 757.359375 265.8965490465853 L 762.375 261.41252153132876 L 767.390625 256.90694669771773 L 772.40625 252.37996274262014 L 777.421875 247.8319846328171 L 782.4375 243.26361481630576 L 787.453125 238.6755775769013 L 792.46875 234.0686710138384 L 797.484375 229.44373214913662 L 802.5 224.8016118045658 L 807.5156249999999 220.1431567408643 L 812.53125 215.46919718660143 L 817.546875 210.78053835750484 L 822.5624999999999 206.0779549203166 L 827.578125 201.36218761904632 L 832.59375 196.6339414787105 L 837.6093750000001 191.8938851492705 L 842.625 187.14265106312916 L 847.640625 182.3808361625672 L 852.6562500000001 177.60900301586346 L 857.671875 172.82768118771924 L 862.6875 168.03736876486653 L 867.703125 163.23853396425875 L 872.71875 158.43161677117203 L 877.734375 153.61703056952294 L 882.75 148.7951637379315 L 887.765625 143.9663811934437 L 892.78125 139.13102587108 L 897.796875 134.28942013200236 L 902.8125 129.4418670964909 L 907.828125 124.58865190039575 L 912.84375 119.73004287550913 L 917.859375 114.86629265554348 L 922.875 109.99763921025948 L 927.890625 105.12430681084822 L 932.90625 100.24650693000012 L 937.921875 95.36443908027957 L 942.9375 90.47829159447883 L 947.9531249999999 85.58824235159591 L 952.96875 80.69445945199828 L 957.984375 75.79710184520815 L 962.9999999999999 70.89631991358698 L 968.015625 65.99225601503235 L 973.03125 61.08504498762244 L 978.046875 56.174814618957555 L 983.0625 51.26168608277919 L 988.078125 46.34577434526233 L 993.09375 41.427188543220495 L 998.109375 36.50603233629289 L 1003.125 31.58240423503753 L 1008.140625 26.6563979067123 L 1013.15625 21.728102460388186 L 1018.171875 16.79760271291707 L 1023.1875 11.864979437162447 L 1028.203125 6.930309593788252 L 1033.21875 1.993666547806754 L 1038.234375 -2.9448797290083917 L 1043.25 -7.8852624688233846" stroke-opacity="0.8" stroke-linecap="round" stroke-linejoin="round" stroke-miterlimit="10" stroke-width="2.5"/><text fill="rgb(101,87,210)" stroke="none" font-family="geogebra-sans-serif, sans-serif" font-size="16px" font-style="normal" font-weight="normal" text-decoration="normal" x="299" y="757" text-anchor="start" dominant-baseline="alphabetic" fill-opacity="1">a=2</text><text fill="none" stroke="rgb(255,255,255)" font-family="geogebra-sans-serif, sans-serif" font-size="16px" font-style="normal" font-weight="normal" text-decoration="normal" x="299" y="757" text-anchor="start" dominant-baseline="alphabetic" stroke-opacity="1" stroke-linejoin="bevel" stroke-miterlimit="10" stroke-width="3">a=2</text><text fill="rgb(101,87,210)" stroke="none" font-family="geogebra-sans-serif, sans-serif" font-size="16px" font-style="normal" font-weight="normal" text-decoration="normal" x="299" y="757" text-anchor="start" dominant-baseline="alphabetic" fill-opacity="1">a=2</text><path fill="none" stroke="rgb(110,109,115)" paint-order="fill stroke markers" d=" M 260.8125 806.4775822513459 L 265.828125 801.7939641483274 L 270.84375 797.1188401584432 L 275.859375 792.4525333731465 L 280.875 787.795383059846 L 285.890625 783.1477456548247 L 290.90625 778.5099958271139 L 295.921875 773.882527618947 L 300.9375 769.2657556688796 L 305.953125 764.6601165241657 L 310.96875 760.0660700495068 L 315.984375 755.4841009398672 L 321 750.9147203456489 L 326.015625 746.3584676191638 L 331.03125 741.8159121920035 L 336.046875 737.2876555936133 L 341.0625 732.7743336220813 L 346.078125 728.2766186788785 L 351.09375 723.7952222799964 L 356.109375 719.3308977566037 L 361.125 714.884443158959 L 366.140625 710.4567043778236 L 371.15625 706.0485784979603 L 376.171875 701.6610173984141 L 381.1875 697.2950316140337 L 386.203125 692.9516944719874 L 391.21875 688.6321465156773 L 396.234375 684.3376002262225 L 401.25 680.0693450482711 L 406.265625 675.8287527219056 L 411.28125 671.6172829153095 L 416.296875 667.436489142962 L 421.3125 663.2880249405314 L 426.32812500000006 659.1736502491209 L 431.34375 655.0952379365434 L 436.359375 651.0547803497288 L 441.375 647.0543957474813 L 446.390625 643.0963344029157 L 451.40625 639.1829840851557 L 456.421875 635.3168745238128 L 461.4375 631.500680318732 L 466.453125 627.7372215699787 L 471.46875 624.0294612535924 L 476.484375 620.3804980365412 L 481.49999999999994 616.7935527817349 L 486.515625 613.2719464034518 L 491.53125 609.8190659446446 L 496.546875 606.4383146923933 L 501.5625 603.1330407347755 L 506.578125 599.90643646873 L 511.59375 596.7613990295181 L 516.609375 593.7003382091277 L 521.625 590.7249138746836 L 526.640625 587.8356788136578 L 531.65625 585.0315948446872 L 536.671875 582.309379359987 L 541.6875 579.662625543179 L 546.703125 577.080621668612 L 551.71875 574.5467726725865 L 556.734375 572.0365007815604 L 561.75 569.5144731230912 L 566.765625 566.9309779130076 L 571.78125 564.2172582814338 L 576.796875 561.2796367860835 L 581.8125 557.9923663078068 L 586.828125 554.1893966304103 L 591.84375 549.6557632422453 L 596.859375 544.1202369145908 L 601.875 537.2523660760115 L 606.890625 528.6691011732273 L 609.3984375 523.6054254659489 L 611.90625 517.9583595380218 L 614.4140625 511.6798451731754 L 616.921875 504.7277813872188 L 619.4296875 497.0692157846319 L 621.9375 488.6838540033459 L 624.4453125 479.56766186117386 L 626.953125 469.7362396569754 L 628.20703125 464.56325710640624 L 629.4609375 459.22756902993706 L 630.71484375 453.7376971780338 L 631.96875 448.10369405925434 L 633.22265625 442.33710900091717 L 634.4765625 436.450924339768 L 635.73046875 430.45946120115707 L 636.984375 424.37825534246883 L 638.23828125 418.22390461824705 L 639.4921875 412.01389071520106 L 640.74609375 405.76637884406404 L 642 399.5 L 643.25390625 393.23362115593596 L 644.5078125 386.98610928479894 L 645.76171875 380.77609538175295 L 647.015625 374.62174465753117 L 648.26953125 368.54053879884293 L 649.5234375 362.549075660232 L 650.77734375 356.66289099908283 L 652.03125 350.89630594074566 L 653.28515625 345.2623028219662 L 654.5390625 339.77243097006294 L 655.79296875 334.43674289359376 L 657.046875 329.2637603430246 L 659.5546875 319.43233813882614 L 662.0625 310.3161459966541 L 664.5703125 301.9307842153681 L 667.078125 294.2722186127812 L 669.5859375 287.3201548268246 L 672.09375 281.0416404619782 L 674.6015625 275.3945745340511 L 677.109375 270.3308988267726 L 682.125 261.7476339239885 L 687.140625 254.87976308540922 L 692.15625 249.3442367577547 L 697.171875 244.81060336958973 L 702.1875 241.00763369219317 L 707.203125 237.7203632139165 L 712.21875 234.78274171856614 L 717.234375 232.06902208699245 L 722.25 229.48552687690875 L 727.265625 226.96349921843955 L 732.28125 224.45322732741346 L 737.296875 221.91937833138797 L 742.3125 219.337374456821 L 747.328125 216.69062064001298 L 752.34375 213.96840515531278 L 757.359375 211.1643211863422 L 762.375 208.27508612531645 L 767.390625 205.29966179087222 L 772.40625 202.23860097048185 L 777.421875 199.09356353126998 L 782.4375 195.8669592652245 L 787.453125 192.56168530760675 L 792.46875 189.18093405535532 L 797.484375 185.72805359654816 L 802.5 182.2064472182651 L 807.5156249999999 178.61950196345893 L 812.53125 174.9705387464076 L 817.546875 171.2627784300213 L 822.5624999999999 167.49931968126808 L 827.578125 163.6831254761872 L 832.59375 159.81701591484432 L 837.6093750000001 155.9036655970843 L 842.625 151.94560425251873 L 847.640625 147.9452196502712 L 852.6562500000001 143.90476206345647 L 857.671875 139.8263497508791 L 862.6875 135.7119750594686 L 867.703125 131.56351085703784 L 872.71875 127.38271708469063 L 877.734375 123.17124727809431 L 882.75 118.9306549517288 L 887.765625 114.66239977377757 L 892.78125 110.36785348432272 L 897.796875 106.04830552801258 L 902.8125 101.70496838596642 L 907.828125 97.33898260158594 L 912.84375 92.95142150203975 L 917.859375 88.54329562217657 L 922.875 84.11555684104098 L 927.890625 79.66910224339631 L 932.90625 75.20477772000368 L 937.921875 70.72338132112151 L 942.9375 66.22566637791869 L 947.9531249999999 61.71234440638682 L 952.96875 57.184087807996605 L 957.984375 52.64153238083617 L 962.9999999999999 48.085279654351154 L 968.015625 43.51589906013294 L 973.03125 38.93392995049322 L 978.046875 34.339883475834256 L 983.0625 29.734244331120465 L 988.078125 25.117472381053005 L 993.09375 20.49000417288596 L 998.109375 15.852254345175368 L 1003.125 11.204616940153926 L 1008.140625 6.5474666268534065 L 1013.15625 1.8811598415569506 L 1018.171875 -2.7939641483273476 L 1023.1875 -7.477582251345893" stroke-opacity="0.8" stroke-linecap="round" stroke-linejoin="round" stroke-miterlimit="10" stroke-width="2.5"/><text fill="rgb(110,109,115)" stroke="none" font-family="geogebra-sans-serif, sans-serif" font-size="16px" font-style="normal" font-weight="normal" text-decoration="normal" x="302" y="773" text-anchor="start" dominant-baseline="alphabetic" fill-opacity="1">a=5</text><text fill="none" stroke="rgb(255,255,255)" font-family="geogebra-sans-serif, sans-serif" font-size="16px" font-style="normal" font-weight="normal" text-decoration="normal" x="302" y="773" text-anchor="start" dominant-baseline="alphabetic" stroke-opacity="1" stroke-linejoin="bevel" stroke-miterlimit="10" stroke-width="3">a=5</text><text fill="rgb(110,109,115)" stroke="none" font-family="geogebra-sans-serif, sans-serif" font-size="16px" font-style="normal" font-weight="normal" text-decoration="normal" x="302" y="773" text-anchor="start" dominant-baseline="alphabetic" fill-opacity="1">a=5</text><path fill="none" stroke="rgb(0,103,88)" paint-order="fill stroke markers" d=" M 290.90625 806.4262416542265 L 295.921875 802.1869302378925 L 300.9375 797.9690113377578 L 305.953125 793.77335804833 L 310.96875 789.6008900990123 L 315.984375 785.452576879733 L 321 781.3294406912967 L 326.015625 777.2325602383263 L 331.03125 773.1630743840057 L 336.046875 769.1221861872253 L 341.0625 765.1111672441614 L 346.078125 761.131362357756 L 351.09375 757.1841945599917 L 356.109375 753.2711705132062 L 361.125 749.3938863179171 L 366.140625 745.5540337556461 L 371.15625 741.7534069959194 L 376.171875 737.9939097968271 L 381.1875 734.2775632280664 L 386.203125 730.6065139439738 L 391.21875 726.9830430313536 L 396.234375 723.4095754524441 L 401.25 719.8886900965415 L 406.265625 716.4231304438106 L 411.28125 713.0158158306181 L 416.296875 709.6698532859234 L 421.3125 706.388549881062 L 426.32812500000006 703.175425498241 L 431.34375 700.0342258730861 L 436.359375 696.9689356994568 L 441.375 693.9837914949619 L 446.390625 691.0832938058304 L 451.40625 688.2722181703107 L 456.421875 685.5556240476249 L 461.4375 682.9388606374632 L 466.453125 680.4275681399567 L 471.46875 678.0276725071842 L 476.484375 675.7453710730817 L 481.49999999999994 673.5871055634691 L 486.515625 671.5595178069032 L 491.53125 669.6693818892888 L 496.546875 667.9235043847862 L 501.5625 666.3285814695505 L 506.578125 664.8909979374595 L 511.59375 663.6165480590358 L 516.609375 662.5100514182551 L 521.625 661.5748277493667 L 526.640625 660.8119826273153 L 531.65625 660.219439689374 L 536.671875 659.7906337199736 L 541.6875 659.5127510863576 L 546.703125 659.3643683372237 L 551.71875 659.3122953451727 L 556.734375 659.3073765631207 L 561.75 659.2789462461822 L 566.765625 659.1275808260149 L 571.78125 658.7157665628674 L 576.796875 657.8561485721668 L 581.8125 656.2972326156134 L 584.3203125 655.1553819185135 L 586.828125 653.7069182608203 L 591.84375 649.6552764844904 L 594.3515625 646.9165962791866 L 596.859375 643.5998488291814 L 601.875 634.8797321520228 L 604.3828125 629.2841362783203 L 606.890625 622.7288273464545 L 609.3984375 615.1092884318975 L 611.90625 606.3229690760435 L 613.16015625 601.4618357945693 L 614.4140625 596.2737528463508 L 615.66796875 590.7486105943134 L 616.921875 584.8774377744375 L 618.17578125 578.6526189049546 L 619.4296875 572.0681190692638 L 620.68359375 565.1197121745182 L 621.9375 557.8052080066917 L 623.19140625 550.1246726563564 L 624.4453125 542.0806362223476 L 625.69921875 533.6782811633955 L 626.953125 524.9256043139508 L 628.20703125 515.8335454628125 L 629.4609375 506.4160755598741 L 630.71484375 496.6902381060675 L 631.341796875 491.7178462273581 L 631.96875 486.6761381185087 L 632.595703125 481.56809413891494 L 633.22265625 476.3968742518343 L 633.849609375 471.16581260860096 L 634.4765625 465.87841117953593 L 635.103515625 460.53833244296385 L 635.73046875 455.14939115231414 L 636.357421875 449.71554520994056 L 636.984375 444.2408856849377 L 637.611328125 438.72962602073585 L 638.23828125 433.18609048649404 L 638.865234375 427.61470193415755 L 639.4921875 422.01996893040206 L 640.119140625 416.40647233937227 L 640.74609375 410.778851438128 L 641.373046875 405.1417896518394 L 642 399.5 L 642.626953125 393.8582103481606 L 643.25390625 388.221148561872 L 643.880859375 382.59352766062773 L 644.5078125 376.98003106959794 L 645.134765625 371.38529806584245 L 645.76171875 365.81390951350596 L 646.388671875 360.27037397926415 L 647.015625 354.7591143150623 L 647.642578125 349.28445479005944 L 648.26953125 343.85060884768586 L 648.896484375 338.46166755703615 L 649.5234375 333.12158882046407 L 650.150390625 327.83418739139904 L 650.77734375 322.6031257481657 L 651.404296875 317.43190586108506 L 652.03125 312.3238618814913 L 652.658203125 307.2821537726419 L 653.28515625 302.3097618939325 L 654.5390625 292.5839244401259 L 655.79296875 283.1664545371875 L 657.046875 274.0743956860493 L 658.30078125 265.32171883660453 L 659.5546875 256.9193637776524 L 660.80859375 248.8753273436436 L 662.0625 241.19479199330826 L 663.31640625 233.88028782548182 L 664.5703125 226.93188093073618 L 665.82421875 220.34738109504536 L 667.078125 214.12256222556255 L 668.33203125 208.2513894056866 L 669.5859375 202.7262471536492 L 670.83984375 197.53816420543066 L 672.09375 192.67703092395655 L 674.6015625 183.8907115681024 L 677.109375 176.27117265354548 L 679.6171875 169.71586372167974 L 682.125 164.12026784797717 L 687.140625 155.4001511708186 L 692.15625 149.3447235155096 L 694.6640625 147.10510311379505 L 697.171875 145.2930817391797 L 702.1875 142.7027673843865 L 704.6953125 141.8172336955061 L 707.203125 141.14385142783323 L 712.21875 140.28423343713257 L 717.234375 139.87241917398512 L 722.25 139.7210537538179 L 727.265625 139.6926234368794 L 732.28125 139.6877046548272 L 737.296875 139.6356316627763 L 742.3125 139.48724891364242 L 747.328125 139.20936628002642 L 752.34375 138.78056031062596 L 757.359375 138.18801737268478 L 762.375 137.42517225063335 L 767.390625 136.4899485817449 L 772.40625 135.38345194096416 L 777.421875 134.10900206254053 L 782.4375 132.67141853044956 L 787.453125 131.0764956152139 L 792.46875 129.3306181107112 L 797.484375 127.4404821930969 L 802.5 125.41289443653085 L 807.5156249999999 123.25462892691831 L 812.53125 120.97232749281574 L 817.546875 118.57243186004331 L 822.5624999999999 116.06113936253678 L 827.578125 113.44437595237514 L 832.59375 110.72778182968938 L 837.6093750000001 107.91670619416942 L 842.625 105.01620850503815 L 847.640625 102.03106430054322 L 852.6562500000001 98.9657741269138 L 857.671875 95.824574501759 L 862.6875 92.61145011893802 L 867.703125 89.33014671407659 L 872.71875 85.98418416938199 L 877.734375 82.57686955618948 L 882.75 79.11130990345856 L 887.765625 75.59042454755593 L 892.78125 72.01695696864641 L 897.796875 68.39348605602612 L 902.8125 64.72243677193364 L 907.828125 61.0060902031729 L 912.84375 57.24659300408064 L 917.859375 53.445966244354 L 922.875 49.606113682082935 L 927.890625 45.72882948679364 L 932.90625 41.81580544000832 L 937.921875 37.868637642244096 L 942.9375 33.88883275583851 L 947.9531249999999 29.87781381277472 L 952.96875 25.836925615994403 L 957.984375 21.767439761673586 L 962.9999999999999 17.670559308703275 L 968.015625 13.54742312026707 L 973.03125 9.39910990098764 L 978.046875 5.226641951669876 L 983.0625 1.0309886622421232 L 988.078125 -3.186930237892568 L 993.09375 -7.426241654226658" stroke-opacity="0.8" stroke-linecap="round" stroke-linejoin="round" stroke-miterlimit="10" stroke-width="2.5"/><text fill="rgb(0,103,88)" stroke="none" font-family="geogebra-sans-serif, sans-serif" font-size="16px" font-style="normal" font-weight="normal" text-decoration="normal" x="314" y="790" text-anchor="start" dominant-baseline="alphabetic" fill-opacity="1">a=9</text><text fill="none" stroke="rgb(255,255,255)" font-family="geogebra-sans-serif, sans-serif" font-size="16px" font-style="normal" font-weight="normal" text-decoration="normal" x="314" y="790" text-anchor="start" dominant-baseline="alphabetic" stroke-opacity="1" stroke-linejoin="bevel" stroke-miterlimit="10" stroke-width="3">a=9</text><text fill="rgb(0,103,88)" stroke="none" font-family="geogebra-sans-serif, sans-serif" font-size="16px" font-style="normal" font-weight="normal" text-decoration="normal" x="314" y="790" text-anchor="start" dominant-baseline="alphabetic" fill-opacity="1">a=9</text></g></g></svg>